<?xml version="1.0" standalone="no"?>
<!DOCTYPE svg PUBLIC "-//W3C//DTD SVG 1.1//EN" "http://www.w3.org/Graphics/SVG/1.1/DTD/svg11.dtd" >
<svg xmlns="http://www.w3.org/2000/svg" xmlns:xlink="http://www.w3.org/1999/xlink" version="1.1">
<metadata></metadata>
<defs>
<font id="road_rageregular" horiz-adv-x="1007" >
<font-face units-per-em="2048" ascent="1638" descent="-410" />
<missing-glyph horiz-adv-x="573" />
<glyph horiz-adv-x="0" />
<glyph horiz-adv-x="0" />
<glyph unicode="&#xa;" horiz-adv-x="0" />
<glyph unicode=" "  horiz-adv-x="573" />
<glyph unicode="&#x09;" horiz-adv-x="573" />
<glyph unicode="&#xa0;" horiz-adv-x="573" />
<glyph unicode="!" horiz-adv-x="471" d="M20 367q44 0 76.5 32t32.5 76v807q0 44 -32.5 75.5t-76.5 31.5q42 45 109 45q65 0 107 -45q42 45 108 45q65 0 107 -45q-44 0 -75.5 -31.5t-31.5 -75.5v-807q0 -44 31.5 -76t75.5 -32q-43 -43 -107 -43q-65 0 -108 43q-45 -45 -107 -45q-64 0 -109 45zM129 109 q0 43 31.5 74.5t75.5 31.5t75 -31.5t31 -74.5q0 -45 -31 -77t-75 -32t-75.5 32.5t-31.5 76.5z" />
<glyph unicode="&#x22;" horiz-adv-x="675" d="M20 1604q45 45 109 45q65 0 110.5 -45.5t45.5 -110.5v-119q0 -62 49 -108q-45 -45 -111 -45q-63 0 -108 45t-45 108v119q0 64 -50 111zM342 1604q45 45 111 45q64 0 108.5 -45.5t44.5 -110.5v-119q0 -59 49 -108q-42 -45 -108 -45q-64 0 -110 45t-46 108v119 q0 65 -49 111z" />
<glyph unicode="#" horiz-adv-x="1097" d="M20 340q0 63 46 109q-46 43 -46 106t46 109q0 -45 31 -77t75 -32v324q-44 0 -75 -32t-31 -77q-46 46 -46 109t46 106q-46 46 -46 109t46 106q0 -44 31 -75t75 -31v188q0 44 -31 75.5t-75 31.5q42 45 106 45t109 -45q42 45 106 45t109 -45q-44 0 -76.5 -31.5t-32.5 -75.5 v-188h324v188q0 44 -32.5 75.5t-76.5 31.5q45 45 109 45t106 -45q45 45 109 45t106 -45q-44 0 -75 -31.5t-31 -75.5v-188q44 0 75 31t31 75q45 -42 45 -106t-45 -109q45 -42 45 -106t-45 -109q0 45 -31 77t-75 32v-324q44 0 75 32t31 77q45 -45 45 -109t-45 -106 q45 -45 45 -109q0 -65 -45 -107q0 44 -31 75.5t-75 31.5v-188q0 -44 31 -75.5t75 -31.5q-42 -45 -106 -45t-109 45q-42 -45 -106 -45t-109 45q44 0 76.5 31.5t32.5 75.5v188h-324v-188q0 -44 32.5 -75.5t76.5 -31.5q-45 -45 -109 -45t-106 45q-45 -45 -109 -45t-106 45 q44 0 75 31.5t31 75.5v188q-44 0 -75 -31.5t-31 -75.5q-46 43 -46 107zM387 555h324v324h-324v-324z" />
<glyph unicode="$" horiz-adv-x="864" d="M20 377q0 62 46 108q45 45 110 45q64 0 109 -45q-49 -46 -49 -108q0 -68 47 -115t114 -47q66 0 113 47.5t47 114.5q0 61 -33.5 107.5t-103.5 95.5q-42 28 -84 28l-29 -4q-12 60 -63 98q-89 70 -142 155t-53 200q0 123 71 220t183 136v84q0 44 -31 75.5t-75 31.5 q42 45 106 45t109 -45q42 45 106 45t109 -45q-44 0 -76.5 -31.5t-32.5 -75.5v-76q99 -23 174 -98q31 -31 76 -31t76 31q0 -64 -45 -106q-43 -46 -107 -46q0 -60 -45 -108q-46 -43 -108 -43q32 28 32 76q0 47 -32 75q-48 48 -113 48q-68 0 -115 -47.5t-47 -114.5 q0 -53 25 -93.5t78 -82.5q44 -29 88 -29l24 2q9 -57 64 -96q49 -36 85 -70t71.5 -80.5t54 -105t18.5 -125.5q0 -123 -70 -220.5t-184 -136.5v-83q0 -44 32.5 -75.5t76.5 -31.5q-45 -45 -109 -45t-106 45q-45 -45 -109 -45t-106 45q44 0 75 31.5t31 75.5v75 q-123 31 -203 132.5t-80 232.5z" />
<glyph unicode="%" horiz-adv-x="1617" d="M20 1057q0 157 110 267t267 110q155 0 265 -110t110 -267q0 -155 -110 -266t-265 -111q-156 0 -266.5 110.5t-110.5 266.5zM182 45q44 0 95 31.5t77 75.5l693 1130q18 30 18 55q0 24 -15 38t-44 14q70 45 135 45q64 0 80 -45q70 45 135 45q64 0 80 -45q-44 0 -95 -31.5 t-79 -75.5l-693 -1130q-18 -30 -18 -56q0 -24 16 -37.5t45 -13.5q-70 -45 -135 -45q-64 0 -80 45q-70 -45 -135 -45q-64 0 -80 45zM236 1057q0 -66 47 -114t114 -48q66 0 113 48t47 114q0 67 -47 114.5t-113 47.5q-67 0 -114 -47t-47 -115zM844 377q0 155 111 265t266 110 q157 0 266.5 -110t109.5 -265q0 -157 -109.5 -267t-266.5 -110q-156 0 -266.5 110.5t-110.5 266.5zM1059 377q0 -67 48 -114.5t114 -47.5q67 0 114 47t47 115q0 66 -47 113t-114 47q-66 0 -114 -47t-48 -113z" />
<glyph unicode="'" horiz-adv-x="354" d="M20 1604q45 45 109 45q65 0 110.5 -45.5t45.5 -110.5v-119q0 -62 49 -108q-45 -45 -111 -45q-63 0 -108 45t-45 108v119q0 64 -50 111z" />
<glyph unicode="(" horiz-adv-x="350" d="M20 715q46 46 46 106v457q0 63 45 108.5t108 45.5q65 0 111 -46q-49 -46 -49 -108v-457q0 -63 43 -106q-43 -46 -43 -109v-450q0 -65 49 -111q-45 -45 -111 -45q-64 0 -108.5 45t-44.5 107v454q0 63 -46 109z" />
<glyph unicode=")" horiz-adv-x="350" d="M20 45q50 47 50 111v450q0 67 -45 109q45 42 45 106v457q0 61 -50 108q46 46 109 46q64 0 110 -45.5t46 -108.5v-457q0 -64 45 -106q-45 -42 -45 -109v-454q-2 -62 -47 -107t-109 -45t-109 45z" />
<glyph unicode="*" horiz-adv-x="403" d="M20 1194v109h89l-46 75l95 54l43 -76l45 76l92 -54l-43 -75h88v-109h-88l43 -76l-92 -53l-45 76l-43 -76l-95 53l46 76h-89z" />
<glyph unicode="+" horiz-adv-x="1150" d="M20 608q0 66 46 109q-46 43 -46 106q0 66 46 109q0 -45 31 -77t75 -32h297v297q0 44 -32.5 76.5t-76.5 32.5q46 43 109 43t106 -43q46 43 109 43q64 0 107 -43q-44 0 -75.5 -32.5t-31.5 -76.5v-297h295q44 0 76 32.5t32 76.5q43 -43 43 -109q0 -63 -43 -106 q43 -43 43 -109q0 -63 -43 -106q0 44 -32 75t-76 31h-295v-295q0 -44 31.5 -76t75.5 -32q-43 -43 -107 -43q-63 0 -109 43q-43 -43 -106 -43t-109 43q44 0 76.5 32t32.5 76v295h-297q-44 0 -75 -31t-31 -75q-46 43 -46 106z" />
<glyph unicode="," horiz-adv-x="284" d="M20 109q0 43 32.5 74.5t76.5 31.5q62 0 98.5 -50t36.5 -114q0 -57 -23.5 -115t-70.5 -100.5t-104 -42.5q-30 0 -46 8q44 8 69.5 55.5t25.5 98.5q0 27 -6 45q-38 8 -63.5 38.5t-25.5 70.5z" />
<glyph unicode="-" d="M20 610q0 64 46 107q-46 43 -46 106q0 66 46 109q0 -45 31 -77t75 -32h225q62 0 107 45q48 -45 108 -45h224q44 0 76 32.5t32 76.5q43 -43 43 -109q0 -63 -43 -106q43 -43 43 -109q0 -63 -43 -106q0 44 -32 75t-76 31h-224q-62 0 -108 -43q-45 45 -107 45h-225 q-44 0 -75 -32t-31 -76q-46 43 -46 108z" />
<glyph unicode="." horiz-adv-x="256" d="M20 109q0 43 32.5 74.5t76.5 31.5q43 0 75 -31.5t32 -74.5q0 -44 -32 -76.5t-75 -32.5q-44 0 -76.5 32.5t-32.5 76.5z" />
<glyph unicode="/" horiz-adv-x="886" d="M20 45q44 0 86.5 31.5t55.5 75.5l141 458q6 24 6 45q0 38 -18 62q60 44 78 106l143 459q4 20 4 29q0 34 -22 56t-58 22q57 45 121 45q66 0 94 -45q57 45 121 45q66 0 94 -45q-45 0 -86 -31.5t-53 -75.5l-143 -459q-6 -21 -6 -43q0 -39 18 -63q-60 -44 -78 -109l-141 -456 q-6 -15 -6 -33q0 -33 22 -53.5t58 -20.5q-57 -45 -121 -45q-66 0 -94 45q-57 -45 -121 -45q-67 0 -95 45z" />
<glyph unicode="0" horiz-adv-x="882" d="M20 717q46 46 46 106v234q0 157 109.5 267t264.5 110q157 0 267 -110t110 -267v-234q0 -61 45 -106q-45 -45 -45 -109v-231q0 -157 -110 -267t-267 -110q-155 0 -264.5 110t-109.5 267v231q0 63 -46 109zM281 377q0 -67 46.5 -114.5t112.5 -47.5q68 0 115 47.5t47 114.5 v231q0 67 -45 109q45 42 45 106v234q0 67 -47 114.5t-115 47.5q-66 0 -112.5 -47.5t-46.5 -114.5v-234q0 -63 43 -106q-43 -43 -43 -109v-231z" />
<glyph unicode="1" horiz-adv-x="518" d="M20 1278q0 64 46 110t110 46q65 0 107 -45q42 45 108 45q65 0 107 -45q-44 0 -75.5 -31.5t-31.5 -75.5v-459q0 -63 43 -106q-43 -43 -43 -109v-456q0 -44 31.5 -75.5t75.5 -31.5q-42 -45 -107 -45q-66 0 -108 45q-42 -45 -107 -45q-66 0 -108 45q44 0 76 31.5t32 75.5 v456q0 64 -45 109q45 45 45 106v396q-63 0 -110 -50q-46 46 -46 109z" />
<glyph unicode="2" horiz-adv-x="978" d="M20 45q44 0 76.5 31.5t32.5 75.5v225q0 67 18.5 125.5t54 105t71.5 80.5t85 70q55 39 64 96l24 -2q45 0 89 29q52 42 77 82.5t25 93.5q0 67 -47.5 114.5t-114.5 47.5q-65 0 -113 -48q-32 -32 -32 -75q0 -44 32 -76q-62 0 -108 43q-45 48 -45 108q-64 0 -107 46 q-45 42 -45 106q36 -31 76 -31q45 0 76 31q114 111 266 111q157 0 267 -110t110 -267q0 -115 -53 -200t-142 -155q-51 -38 -63 -98l-29 4q-42 0 -84 -28q-71 -49 -105 -95.5t-34 -107.5v-162h281q44 0 77 33q31 31 31 76q0 44 -31 75q64 0 107 -43q45 -45 45 -108v-96 q0 -44 31.5 -75.5t74.5 -31.5q-42 -45 -106 -45t-109 45q-42 -45 -106 -45h-295q-64 0 -106 45q-42 -45 -107 -45q-67 0 -109 45z" />
<glyph unicode="3" horiz-adv-x="835" d="M20 1323q36 -31 76 -31q45 0 76 31q111 111 266 111q157 0 267 -110t110 -267q0 -127 -21 -199t-92 -141q113 -110 113 -268v-72q0 -157 -110 -267t-267 -110q-156 0 -266.5 110.5t-110.5 266.5q0 60 48 108q42 45 108 45q67 0 109 -45q-50 -50 -50 -108q0 -67 48 -114.5 t114 -47.5q68 0 115 47.5t47 114.5v72q0 66 -47.5 112.5t-114.5 46.5q-64 0 -108 47q-45 42 -45 109q0 66 45 108q46 -49 108 -49q67 0 114.5 48t47.5 114v72q0 67 -47 114.5t-115 47.5q-63 0 -114 -48q-31 -31 -31 -75q0 -45 31 -76q-64 0 -107 43q-45 45 -45 108 q-63 0 -106 46q-46 43 -46 106z" />
<glyph unicode="4" horiz-adv-x="901" d="M20 608l158 670q4 24 4 35q0 47 -26 76q54 45 120 45q63 0 99 -45q22 -31 22 -74q0 -13 -4 -37l-106 -455h272v459q0 44 -32 75.5t-76 31.5q42 45 108 45q65 0 107 -45q42 45 106 45q67 0 109 -45q-44 0 -76.5 -31.5t-32.5 -75.5v-459q0 -61 45 -106q-45 -45 -45 -109 v-456q0 -44 32.5 -75.5t76.5 -31.5q-42 -45 -109 -45q-64 0 -106 45q-42 -45 -109 -45q-64 0 -106 45q44 0 75 31.5t31 75.5v456h-537z" />
<glyph unicode="5" horiz-adv-x="978" d="M20 1389q42 45 109 45q65 0 107 -45q42 45 108 45h293q64 0 106 -45q45 45 109 45t106 -45q-43 0 -74.5 -31.5t-31.5 -75.5v-96q0 -64 -45 -109q-43 -43 -107 -43q31 31 31 76t-31 76q-33 33 -77 33h-279v-324h131q157 0 267 -110t110 -265v-143q0 -157 -110 -267 t-267 -110q-155 0 -265 110t-110 267q0 63 45 108q42 45 109 45q66 0 108 -45q-47 -47 -47 -108q0 -67 47 -114.5t113 -47.5q67 0 114.5 47.5t47.5 114.5v143q0 66 -47.5 113t-114.5 47h-346v602q0 44 -32.5 75.5t-76.5 31.5z" />
<glyph unicode="6" horiz-adv-x="880" d="M20 717q46 46 46 106v234q0 157 109.5 267t264.5 110q156 0 267 -111q36 -31 77 -31q45 0 76 31q0 -61 -45 -106q-46 -46 -108 -46q0 -62 -43 -108q-46 -43 -109 -43q33 29 33 76q0 46 -33 75q-48 48 -115 48q-66 0 -112.5 -47.5t-46.5 -114.5v-197q75 35 159 35 q157 0 267 -110t110 -265v-143q0 -157 -110 -267t-267 -110q-155 0 -264.5 110t-109.5 267v231q0 63 -46 109zM281 377q0 -67 46.5 -114.5t112.5 -47.5q68 0 115 47.5t47 114.5v143q0 66 -47.5 113t-114.5 47q-66 0 -112.5 -47t-46.5 -113v-143z" />
<glyph unicode="7" horiz-adv-x="1032" d="M20 1389q42 45 109 45q65 0 107 -45q42 45 106 45h358q66 0 97 -45q54 45 118 45q66 0 97 -45q-44 0 -83.5 -31.5t-49.5 -75.5l-115 -459h4q62 0 111 49q45 -45 45 -108q0 -64 -45 -109q-47 -47 -111 -47h-57l-115 -456l-4 -27q0 -34 23 -57t61 -23q-51 -45 -119 -45 q-60 0 -96 45q-51 -45 -119 -45q-60 0 -96 45q44 0 84.5 31.5t50.5 75.5l115 456q-68 0 -115 -47q-45 45 -45 109q0 63 45 108t111 45h57l98 396h-291q-46 0 -75 -33q-33 -33 -33 -76t33 -76q-63 0 -109 43q-43 46 -43 109v96q0 44 -32.5 75.5t-76.5 31.5z" />
<glyph unicode="8" horiz-adv-x="792" d="M20 377v143q0 158 113 268q-113 110 -113 269q0 157 110 267t267 110q155 0 265 -110t110 -267q0 -159 -113 -269q113 -110 113 -268v-143q0 -157 -110 -267t-265 -110q-157 0 -267 110t-110 267zM236 377q0 -68 47 -115t114 -47q66 0 113 47.5t47 114.5v143 q0 66 -47 113t-113 47q-67 0 -114 -47t-47 -113v-143zM236 1057q0 -66 47 -114t114 -48q66 0 113 48t47 114q0 67 -47 114.5t-113 47.5q-67 0 -114 -47t-47 -115z" />
<glyph unicode="9" horiz-adv-x="837" d="M20 913v144q0 157 110 267t267 110q156 0 266.5 -110.5t110.5 -266.5v-234q0 -63 43 -106q-43 -43 -43 -109v-231q0 -156 -110.5 -266.5t-266.5 -110.5q-155 0 -266 111q-45 45 -45 108q0 66 45 111q48 45 109 45v-8q0 -62 43 -105q47 -47 114 -47q66 0 114 47.5 t48 114.5v196q-77 -36 -162 -36q-157 0 -267 110.5t-110 265.5zM236 913q0 -66 47 -113.5t114 -47.5q66 0 114 47.5t48 113.5v144q0 67 -48 114.5t-114 47.5q-67 0 -114 -47t-47 -115v-144z" />
<glyph unicode=":" horiz-adv-x="256" d="M20 502q0 44 32 75t77 31q43 0 75 -31t32 -75t-32 -76.5t-75 -32.5q-44 0 -76.5 32.5t-32.5 76.5zM20 932q0 44 32 75t77 31q43 0 75 -31t32 -75t-32 -76.5t-75 -32.5q-44 0 -76.5 32.5t-32.5 76.5z" />
<glyph unicode=";" horiz-adv-x="284" d="M20 195q44 10 69.5 57t25.5 98q0 25 -6 43q-38 9 -63.5 40t-25.5 71q0 43 32.5 73.5t76.5 30.5q62 0 98.5 -50t36.5 -114q0 -90 -56.5 -173t-141.5 -83q-25 0 -46 7zM20 932q0 44 32 75t77 31q43 0 75 -31t32 -75t-32 -76.5t-75 -32.5q-44 0 -76.5 32.5t-32.5 76.5z" />
<glyph unicode="&#x3c;" horiz-adv-x="1290" d="M20 717l1096 536q44 22 76.5 69t32.5 91q45 -23 45 -86q0 -61 -45 -129q45 -23 45 -86q0 -61 -45 -129q0 32 -17 50t-45 18q-21 0 -47 -13l-655 -321l655 -322q24 -12 47 -12q28 0 45 18t17 50q45 -68 45 -129q0 -63 -45 -86q45 -68 45 -130q0 -63 -45 -86q0 44 -32.5 91 t-76.5 69z" />
<glyph unicode="=" horiz-adv-x="1150" d="M20 340q0 63 46 109q-46 43 -46 106t46 109q0 -45 31 -77t75 -32h297q61 0 106 45q48 -45 109 -45h295q44 0 76 32.5t32 76.5q43 -46 43 -109t-43 -106q43 -46 43 -109q0 -64 -43 -107q0 44 -32 75.5t-76 31.5h-295q-63 0 -109 -43q-43 43 -106 43h-297q-44 0 -75 -31.5 t-31 -75.5q-46 43 -46 107zM20 879q0 63 46 106q-46 46 -46 109t46 106q0 -44 31 -75t75 -31h297q63 0 106 43q46 -43 109 -43h295q44 0 76 31t32 75q43 -43 43 -106t-43 -109q43 -43 43 -106t-43 -109q0 44 -32 76.5t-76 32.5h-295q-61 0 -109 -45q-45 45 -106 45h-297 q-44 0 -75 -32t-31 -77q-46 46 -46 109z" />
<glyph unicode="&#x3e;" horiz-adv-x="1290" d="M20 106q0 65 46 130q-46 22 -46 86t46 129q0 -32 16 -50t43 -18q23 0 47 12l657 322l-657 321q-26 13 -47 13q-27 0 -43 -18t-16 -50q-46 65 -46 129t46 86q-46 65 -46 129t46 86q0 -44 31 -91t75 -69l1098 -536l-1098 -537q-44 -22 -75 -69t-31 -91q-46 22 -46 86z" />
<glyph unicode="?" horiz-adv-x="792" d="M20 1057q0 157 110 267t267 110q155 0 265 -110t110 -267q0 -69 -15 -126.5t-38.5 -97t-52 -74t-57 -65t-52 -61.5t-38.5 -71t-15 -87q0 -44 32 -76t76 -32q-46 -43 -108 -43q-64 0 -107 43q-46 -43 -108 -43q-64 0 -107 43q44 0 75.5 32t31.5 76q0 69 15 126.5t38.5 97 t52 74t57 65t52 61.5t38.5 71t15 87q0 67 -47 114.5t-113 47.5q-67 0 -114 -47t-47 -115q0 -63 49 -109q-45 -45 -109 -45t-110 45.5t-46 108.5zM289 109q0 43 32 74.5t76 31.5t75.5 -31.5t31.5 -74.5q0 -44 -31.5 -76.5t-75.5 -32.5t-76 32.5t-32 76.5z" />
<glyph unicode="@" horiz-adv-x="1267" d="M20 717q46 46 46 106v234q0 157 109.5 267t264.5 110h324q156 0 266.5 -110.5t110.5 -266.5v-234q0 -63 43 -106q-43 -43 -43 -109v-456q0 -44 31 -75.5t75 -31.5q-42 -45 -106 -45t-109 45q-42 -45 -106 -45h-162q-156 0 -266.5 110.5t-110.5 266.5v303 q0 156 110.5 266.5t266.5 110.5q87 0 162 -35v35q0 67 -48 114.5t-114 47.5h-324q-66 0 -112.5 -47.5t-46.5 -114.5v-234q0 -63 43 -106q-43 -43 -43 -109v-452q0 -65 49 -111q-45 -45 -111 -45q-63 0 -108 46t-45 110v452q0 63 -46 109zM602 377q0 -67 48 -114.5t114 -47.5 h162v465q0 67 -48 114.5t-114 47.5t-114 -47.5t-48 -114.5v-303z" />
<glyph unicode="A" d="M20 45q44 0 82.5 31.5t47.5 75.5l92 458q2 10 2 29q0 44 -27 78q56 43 68 108l90 457l2 23q0 36 -25 60t-63 24q51 45 117 45q67 0 98 -45q36 45 98 45q66 0 117 -45q-38 0 -63 -24t-25 -60l2 -23l92 -459q12 -62 66 -106q-27 -34 -27 -76l4 -31l92 -458 q7 -44 45.5 -75.5t81.5 -31.5q-31 -45 -98 -45q-63 0 -117 45q-31 -45 -98 -45q-63 0 -117 45q40 0 65 25t25 63l-2 19l-141 700l-72 -367q60 0 103 -43q40 -43 40 -102t-40 -102q0 32 -22.5 53.5t-55.5 21.5q-30 0 -50 -21t-26 -54l-16 -86l-3 -23q0 -35 25.5 -59.5 t63.5 -24.5q-51 -45 -117 -45q-62 0 -98 45q-51 -45 -117 -45q-63 0 -99 45z" />
<glyph unicode="B" horiz-adv-x="901" d="M20 45q44 0 76.5 31.5t32.5 75.5v458q0 62 -45 107q45 45 45 108v457q0 44 -32.5 75.5t-76.5 31.5q42 45 109 45q65 0 107 -45q42 45 108 45q170 0 291 -121t121 -291q0 -136 -86 -250q97 -55 154 -150t57 -210q0 -170 -121 -291t-291 -121h-127q-64 0 -106 45 q-42 -45 -107 -45q-67 0 -109 45zM342 215h127q82 0 139.5 57.5t57.5 139.5t-57.5 140t-139.5 58h-127v-395zM342 825q83 0 141 57.5t58 139.5t-58 139.5t-141 57.5v-394z" />
<glyph unicode="C" horiz-adv-x="880" d="M20 717q46 46 46 108v232q0 157 109.5 267t264.5 110q156 0 267 -111q36 -31 77 -31q45 0 76 31q0 -61 -45 -106q-46 -46 -108 -46q0 -62 -43 -108q-46 -43 -109 -43q33 29 33 76q0 46 -33 75q-48 48 -115 48q-66 0 -112.5 -47.5t-46.5 -114.5v-232q0 -65 43 -108 q-43 -43 -43 -107v-233q0 -67 46.5 -114.5t112.5 -47.5q68 0 115 47.5t47 114.5q0 62 -49 108q45 45 111 45q63 0 108 -45t45 -108q0 -157 -110 -267t-267 -110q-155 0 -264.5 110t-109.5 267v233q0 61 -46 107z" />
<glyph unicode="D" horiz-adv-x="946" d="M20 45q44 0 76.5 31.5t32.5 75.5v458q0 62 -45 107q45 45 45 108v457q0 44 -32.5 75.5t-76.5 31.5q42 45 109 45q65 0 107 -45q42 45 106 45h162q157 0 267 -110t110 -267v-234q0 -64 45 -106q-45 -42 -45 -107v-233q0 -157 -110 -267t-267 -110h-162q-64 0 -106 45 q-42 -45 -107 -45q-67 0 -109 45zM342 215h162q68 0 115 47.5t47 114.5v233q0 65 -45 107q45 42 45 108v232q0 67 -47 114.5t-115 47.5h-162v-394q0 -63 45 -108q-45 -45 -45 -107v-395z" />
<glyph unicode="E" d="M20 45q44 0 76.5 31.5t32.5 75.5v458q0 62 -45 107q45 45 45 108v457q0 44 -32.5 75.5t-76.5 31.5q42 45 109 45q65 0 107 -45q42 45 108 45h322q64 0 106 -45q45 45 109 45t106 -45q-43 0 -74.5 -31.5t-31.5 -75.5v-96q0 -64 -45 -109q-43 -43 -107 -43q31 31 31 76 t-31 76q-33 33 -78 33h-307v-394h170q44 0 75.5 31.5t31.5 75.5q45 -42 45 -107q0 -66 -45 -108q45 -42 45 -107q0 -66 -45 -108q0 44 -31.5 76t-75.5 32h-170v-395h307q45 0 78 33q31 31 31 76q0 44 -31 75q64 0 107 -43q45 -45 45 -108v-96q0 -44 31.5 -75.5t74.5 -31.5 q-42 -45 -106 -45t-109 45q-42 -45 -106 -45h-324q-64 0 -106 45q-42 -45 -107 -45q-67 0 -109 45z" />
<glyph unicode="F" d="M20 45q44 0 76.5 31.5t32.5 75.5v458q0 62 -45 107q45 45 45 108v457q0 44 -32.5 75.5t-76.5 31.5q42 45 109 45q65 0 107 -45q42 45 108 45h322q64 0 106 -45q45 45 109 45t106 -45q-43 0 -74.5 -31.5t-31.5 -75.5v-96q0 -64 -45 -109q-43 -43 -107 -43q31 31 31 76 t-31 76q-33 33 -78 33h-309v-394h172q44 0 75.5 31.5t31.5 75.5q45 -42 45 -107q0 -66 -45 -108q45 -42 45 -107q0 -66 -45 -108q0 44 -31.5 76t-75.5 32h-172v-458q0 -44 32.5 -75.5t76.5 -31.5q-42 -45 -109 -45q-64 0 -106 45q-42 -45 -107 -45q-67 0 -109 45z" />
<glyph unicode="G" horiz-adv-x="880" d="M20 717q46 46 46 108v232q0 157 109.5 267t264.5 110q156 0 267 -111q36 -31 77 -31q45 0 76 31q0 -61 -45 -106q-46 -46 -108 -46q0 -62 -43 -108q-46 -43 -109 -43q33 29 33 76q0 46 -33 75q-48 48 -115 48q-66 0 -112.5 -47.5t-46.5 -114.5v-232q0 -65 43 -108 q-43 -43 -43 -107v-233q0 -67 46.5 -114.5t112.5 -47.5q68 0 115 47.5t47 114.5v233q-42 0 -70 -10.5t-55 -38.5q-45 42 -45 109q0 66 45 108q44 47 109 47h119q63 0 110 47q45 -45 45 -108q0 -61 -43 -107v-280q0 -157 -110 -267t-267 -110q-155 0 -264.5 110t-109.5 267 v233q0 61 -46 107z" />
<glyph unicode="H" d="M20 45q44 0 76.5 31.5t32.5 75.5v458q0 62 -45 107q45 45 45 108v457q0 44 -32.5 75.5t-76.5 31.5q42 45 109 45q65 0 107 -45q42 45 108 45q65 0 107 -45q-44 0 -75.5 -31.5t-31.5 -75.5v-510q74 53 166 53q82 0 156 -47v504q0 44 -32 75.5t-75 31.5q42 45 107 45 q64 0 106 -45q45 45 109 45t106 -45q-43 0 -74.5 -31.5t-31.5 -75.5v-457q0 -66 45 -108q-45 -42 -45 -107v-458q0 -44 31.5 -75.5t74.5 -31.5q-42 -45 -106 -45t-109 45q-42 -45 -106 -45q-65 0 -107 45q43 0 75 31.5t32 75.5v292q-42 -24 -78 -26q33 33 33 80 q0 46 -32.5 78t-78.5 32q-69 0 -117.5 -48.5t-48.5 -117.5v-290q0 -44 31.5 -75.5t75.5 -31.5q-42 -45 -107 -45q-66 0 -108 45q-42 -45 -107 -45q-67 0 -109 45z" />
<glyph unicode="I" horiz-adv-x="471" d="M20 45q44 0 76.5 31.5t32.5 75.5v458q0 62 -45 107q45 45 45 108v457q0 44 -32.5 75.5t-76.5 31.5q42 45 109 45q65 0 107 -45q42 45 108 45q65 0 107 -45q-44 0 -75.5 -31.5t-31.5 -75.5v-457q0 -65 43 -108q-43 -43 -43 -107v-458q0 -44 31.5 -75.5t75.5 -31.5 q-42 -45 -107 -45q-66 0 -108 45q-42 -45 -107 -45q-67 0 -109 45z" />
<glyph unicode="J" horiz-adv-x="901" d="M20 377q0 63 46 108t110 45t109 -45q-49 -46 -49 -108q0 -68 47 -115t114 -47q66 0 114 47.5t48 114.5v233q0 62 -45 107q45 45 45 108v457q0 44 -32 75.5t-76 31.5q42 45 108 45q65 0 107 -45q42 45 108 45q65 0 107 -45q-44 0 -75.5 -31.5t-31.5 -75.5l-2 -457 q0 -63 45 -108q-45 -45 -45 -107v-233q0 -157 -110 -267t-265 -110q-157 0 -267 110t-110 267z" />
<glyph unicode="K" horiz-adv-x="966" d="M20 45q44 0 76.5 31.5t32.5 75.5v458q0 62 -45 107q45 45 45 108v457q0 44 -32.5 75.5t-76.5 31.5q42 45 109 45q65 0 107 -45q42 45 108 45q65 0 107 -45q-44 0 -75.5 -31.5t-31.5 -75.5v-457h53l183 457q8 19 8 41q0 30 -19.5 48t-52.5 18q57 45 125 45q62 0 90 -45 q57 45 125 45q62 0 90 -45q-44 0 -88 -31.5t-63 -75.5l-226 -565l226 -565q19 -44 63 -75.5t88 -31.5q-28 -45 -90 -45q-68 0 -125 45q-28 -45 -90 -45q-68 0 -125 45q33 0 52.5 18t19.5 48q0 22 -8 41l-183 458h-53v-458q0 -44 31.5 -75.5t75.5 -31.5q-42 -45 -107 -45 q-66 0 -108 45q-42 -45 -107 -45q-67 0 -109 45z" />
<glyph unicode="L" d="M20 45q44 0 76.5 31.5t32.5 75.5v458q0 62 -45 107q45 45 45 108v457q0 44 -32.5 75.5t-76.5 31.5q42 45 109 45q65 0 107 -45q42 45 108 45q65 0 107 -45q-44 0 -75.5 -31.5t-31.5 -75.5v-457q0 -65 43 -108q-43 -43 -43 -107v-395h307q45 0 78 33q31 31 31 76 q0 44 -31 75q64 0 107 -43q45 -45 45 -108v-96q0 -44 31.5 -75.5t74.5 -31.5q-42 -45 -106 -45t-109 45q-42 -45 -106 -45h-322q-66 0 -108 45q-42 -45 -107 -45q-67 0 -109 45z" />
<glyph unicode="M" horiz-adv-x="1374" d="M20 45q44 0 76.5 31.5t32.5 75.5v458q0 62 -45 107q45 45 45 108v457q0 44 -32.5 75.5t-76.5 31.5q36 45 117 45q77 0 150 -44.5t98 -107.5l303 -754l301 754q25 63 98 107.5t150 44.5q81 0 117 -45q-44 0 -75.5 -31.5t-31.5 -75.5v-457q0 -65 43 -108q-43 -43 -43 -107 v-458q0 -44 31.5 -75.5t75.5 -31.5q-42 -45 -107 -45q-66 0 -108 45q-42 -45 -107 -45q-66 0 -108 45q44 0 76 31.5t32 75.5v700l-237 -592q17 -43 62 -75.5t89 -32.5q-40 -43 -117 -43q-76 0 -141 38q-68 -38 -143 -38q-78 0 -115 43q44 0 88.5 32.5t61.5 75.5l-238 592 v-700q0 -44 32.5 -75.5t76.5 -31.5q-42 -45 -109 -45q-64 0 -106 45q-42 -45 -107 -45q-67 0 -109 45z" />
<glyph unicode="N" d="M20 45q44 0 76.5 31.5t32.5 75.5v458q0 62 -45 107q45 45 45 108v457q0 44 -32.5 75.5t-76.5 31.5q36 45 117 45q77 0 150 -44.5t98 -107.5l281 -700v700q0 44 -32 75.5t-75 31.5q42 45 107 45q64 0 106 -45q45 45 109 45t106 -45q-43 0 -74.5 -31.5t-31.5 -75.5v-457 q0 -66 45 -108q-45 -42 -45 -107v-458q0 -44 31.5 -75.5t74.5 -31.5q-36 -45 -115 -45q-78 0 -151 44.5t-98 107.5l-279 700v-700q0 -44 31.5 -75.5t75.5 -31.5q-42 -45 -107 -45q-66 0 -108 45q-42 -45 -107 -45q-67 0 -109 45z" />
<glyph unicode="O" horiz-adv-x="882" d="M20 717q46 46 46 108v232q0 157 109.5 267t264.5 110q157 0 267 -110t110 -267v-232q0 -63 45 -108q-45 -45 -45 -107v-233q0 -157 -110 -267t-267 -110q-155 0 -264.5 110t-109.5 267v233q0 61 -46 107zM281 377q0 -67 46.5 -114.5t112.5 -47.5q68 0 115 47.5t47 114.5 v233q0 65 -45 107q45 42 45 108v232q0 67 -47 114.5t-115 47.5q-66 0 -112.5 -47.5t-46.5 -114.5v-232q0 -65 43 -108q-43 -43 -43 -107v-233z" />
<glyph unicode="P" horiz-adv-x="901" d="M20 45q44 0 76.5 31.5t32.5 75.5v458q0 62 -45 107q45 45 45 108v457q0 44 -32.5 75.5t-76.5 31.5q42 45 109 45q65 0 107 -45q42 45 106 45h127q170 0 291 -121t121 -291t-121 -291t-291 -121h-127v-458q0 -44 32.5 -75.5t76.5 -31.5q-42 -45 -109 -45q-64 0 -106 45 q-42 -45 -107 -45q-67 0 -109 45zM342 825h127q82 0 139.5 57.5t57.5 139.5t-57.5 139.5t-139.5 57.5h-127v-394z" />
<glyph unicode="Q" horiz-adv-x="946" d="M20 717q46 46 46 108v232q0 157 109.5 267t264.5 110q157 0 267 -110t110 -267v-232q0 -63 45 -108q-45 -45 -45 -107v-233q0 -82 -31 -152l27 -28q44 -41 105 -41h8q0 -63 -45 -111q-45 -45 -111 -45q-63 0 -108 45l-17 16q-89 -61 -205 -61q-155 0 -264.5 110 t-109.5 267v233q0 61 -46 107zM281 377q0 -67 46.5 -114.5t112.5 -47.5q24 0 45 6q-36 36 -60.5 50t-64.5 14h-8q0 60 45 108q45 45 111 45q56 0 94 -32v204q0 65 -45 107q45 42 45 108v232q0 67 -47 114.5t-115 47.5q-66 0 -112.5 -47.5t-46.5 -114.5v-232q0 -65 43 -108 q-43 -43 -43 -107v-233z" />
<glyph unicode="R" horiz-adv-x="966" d="M20 45q44 0 76.5 31.5t32.5 75.5v458q0 62 -45 107q45 45 45 108v457q0 44 -32.5 75.5t-76.5 31.5q42 45 109 45q65 0 107 -45q42 45 106 45h127q170 0 291 -121t121 -291q0 -133 -78 -240.5t-201 -150.5l193 -479q19 -44 63 -75.5t88 -31.5q-28 -45 -90 -45 q-68 0 -125 45q-28 -45 -90 -45q-68 0 -125 45q33 0 52.5 18t19.5 48q0 22 -8 41l-183 458h-55v-458q0 -44 32.5 -75.5t76.5 -31.5q-42 -45 -109 -45q-64 0 -106 45q-42 -45 -107 -45q-67 0 -109 45zM342 825h127q82 0 139.5 57.5t57.5 139.5t-57.5 139.5t-139.5 57.5h-127 v-394z" />
<glyph unicode="S" horiz-adv-x="864" d="M20 377q0 62 46 108q45 45 110 45q64 0 109 -45q-49 -46 -49 -108q0 -68 47 -115t114 -47q66 0 113 47.5t47 114.5q0 61 -33.5 107.5t-103.5 95.5q-42 28 -84 28l-29 -4q-12 60 -63 98q-89 70 -142 155t-53 200q0 157 110 267t267 110q152 0 266 -111q31 -31 76 -31 t76 31q0 -64 -45 -106q-43 -46 -107 -46q0 -60 -45 -108q-46 -43 -108 -43q32 28 32 76q0 47 -32 75q-48 48 -113 48q-68 0 -115 -47.5t-47 -114.5q0 -53 25.5 -94.5t77.5 -81.5q36 -29 86 -29l26 2q9 -57 64 -96q50 -36 86.5 -70t71 -80.5t53 -104.5t18.5 -126 q0 -157 -110 -267t-265 -110q-157 0 -267 110t-110 267z" />
<glyph unicode="T" d="M20 1389q42 45 109 45q65 0 107 -45q42 45 108 45h322q64 0 106 -45q45 45 109 45t106 -45q-43 0 -74.5 -31.5t-31.5 -75.5v-96q0 -64 -45 -109q-43 -43 -107 -43q31 31 31 76t-31 76q-33 33 -78 33h-47v-394q0 -63 45 -108q-45 -45 -45 -107v-458q0 -44 32.5 -75.5 t76.5 -31.5q-45 -45 -109 -45t-106 45q-45 -45 -109 -45t-106 45q44 0 75 31.5t31 75.5v458q0 64 -43 107q43 43 43 108v394h-33q-46 0 -75 -33q-33 -33 -33 -76t33 -76q-63 0 -109 43q-43 46 -43 109v96q0 44 -32.5 75.5t-76.5 31.5z" />
<glyph unicode="U" d="M20 1389q42 45 109 45q65 0 107 -45q42 45 106 45q67 0 109 -45q-44 0 -76.5 -31.5t-32.5 -75.5v-457q0 -63 45 -108q-45 -45 -45 -107v-233q0 -67 48 -114.5t114 -47.5q68 0 115 47.5t47 114.5v233q0 65 -45 107q45 42 45 106v459q0 44 -32.5 75.5t-76.5 31.5 q45 45 109 45t106 -45q45 45 109 45t106 -45q-43 0 -74.5 -31.5t-31.5 -75.5v-457q0 -66 45 -108q-45 -42 -45 -107v-233q0 -157 -110 -267t-267 -110q-155 0 -265 110t-110 267v233q-3 65 -45 107q45 45 45 106v459q0 44 -32.5 75.5t-76.5 31.5z" />
<glyph unicode="V" d="M20 1389q36 45 99 45q66 0 117 -45q36 45 98 45q66 0 117 -45q-38 0 -63.5 -24.5t-25.5 -59.5l3 -23l139 -700l141 700l2 18q0 38 -25.5 63.5t-64.5 25.5q54 45 117 45q67 0 98 -45q54 45 117 45q67 0 98 -45q-43 0 -81.5 -31.5t-45.5 -75.5l-92 -459l-4 -30 q0 -42 27 -76q-54 -44 -66 -107l-92 -458l-2 -23q0 -36 25 -60t63 -24q-51 -45 -117 -45q-62 0 -98 45q-31 -45 -98 -45q-66 0 -117 45q38 0 63 24t25 60l-2 23l-90 458q-13 64 -68 107q27 34 27 80q0 18 -2 28l-92 457q-9 44 -47.5 75.5t-82.5 31.5z" />
<glyph unicode="W" horiz-adv-x="1546" d="M20 1389q36 45 99 45q66 0 117 -45q36 45 98 45q66 0 117 -45q-38 0 -63.5 -24.5t-25.5 -59.5l3 -23l139 -700l141 700l2 18q0 38 -25.5 63.5t-64.5 25.5q54 45 117 45q67 0 98 -45q36 45 100 45t115 -45q-38 0 -63 -25.5t-25 -63.5l2 -18l141 -700l140 700l2 23 q0 36 -25 60t-63 24q51 45 116 45q63 0 99 -45q51 45 116 45q63 0 99 -45q-44 0 -82 -31.5t-47 -75.5l-92 -457q-2 -10 -2 -28q0 -47 26 -80q-54 -42 -67 -107l-91 -458l-2 -23q0 -36 25 -60t63 -24q-51 -45 -116 -45q-68 0 -99 45q-36 -45 -98 -45q-66 0 -117 45 q38 0 63 24t25 60l-2 23l-141 700l-139 -700l-2 -23q0 -36 25 -60t63 -24q-51 -45 -117 -45q-62 0 -98 45q-31 -45 -98 -45q-66 0 -117 45q38 0 63 24t25 60l-2 23l-90 458q-13 64 -68 107q27 34 27 80q0 18 -2 28l-92 457q-9 44 -47.5 75.5t-82.5 31.5z" />
<glyph unicode="X" horiz-adv-x="1009" d="M20 45q44 0 88.5 31.5t61.5 75.5l184 458q4 16 4 23q0 35 -49 84q49 49 49 86q0 6 -4 22l-184 457q-17 44 -61.5 75.5t-88.5 31.5q25 45 91 45q64 0 125 -45q25 45 90 45q64 0 125 -45q-33 0 -53.5 -19t-20.5 -49q0 -20 8 -39l119 -297l119 297q8 19 8 39q0 31 -20 49.5 t-52 18.5q57 45 125 45q62 0 90 -45q57 45 125 45q62 0 90 -45q-44 0 -88 -31.5t-63 -75.5l-183 -457q-4 -16 -4 -22q0 -39 47 -86q-47 -47 -47 -84q0 -7 4 -23l183 -458q19 -44 62.5 -75.5t86.5 -31.5q-25 -45 -88 -45q-66 0 -127 45q-25 -45 -88 -45q-66 0 -127 45 q34 0 54 18.5t20 49.5q0 20 -8 39l-119 297l-119 -297q-8 -19 -8 -39q0 -30 20.5 -49t53.5 -19q-61 -45 -125 -45q-65 0 -90 45q-61 -45 -125 -45q-66 0 -91 45z" />
<glyph unicode="Y" d="M20 1389q25 45 91 45q64 0 125 -45q25 45 90 45q64 0 125 -45q-33 0 -53.5 -19t-20.5 -49q0 -20 8 -39l119 -297l119 297q8 19 8 39q0 31 -20 49.5t-52 18.5q57 45 125 45q62 0 90 -45q57 45 125 45q63 0 88 -45q-43 0 -86.5 -31.5t-62.5 -75.5l-183 -457 q-16 -50 -16 -67q0 -25 16 -41q-43 -43 -43 -107v-458q0 -44 31.5 -75.5t75.5 -31.5q-42 -45 -107 -45q-63 0 -108 45q-42 -45 -107 -45q-63 0 -108 45q44 0 76 31.5t32 75.5v458q0 62 -45 107q17 17 17 45q0 20 -15 63l-184 457q-17 44 -61.5 75.5t-88.5 31.5z" />
<glyph unicode="Z" horiz-adv-x="1044" d="M20 1389q42 45 109 45q65 0 107 -45q42 45 108 45h356q66 0 91 -45q61 45 124 45q66 0 91 -45q-44 0 -88.5 -31.5t-61.5 -75.5l-182 -457q55 3 96 47q45 -42 45 -108q0 -67 -45 -109q-45 -45 -108 -45h-76l-158 -395h260q47 0 76 33q33 29 33 76q0 46 -33 75 q62 0 108 -43q43 -46 43 -108v-96q0 -44 32.5 -75.5t76.5 -31.5q-45 -45 -109 -45t-106 45q-45 -45 -109 -45h-356q-65 0 -90 45q-61 -45 -125 -45q-65 0 -90 45q44 0 88 31.5t61 75.5l183 456q-56 -3 -97 -47q-45 42 -45 109q0 66 45 108q44 47 109 47h74l157 394h-258 q-46 0 -75 -33q-33 -33 -33 -76t33 -76q-63 0 -109 43q-43 46 -43 109v96q0 44 -32.5 75.5t-76.5 31.5z" />
<glyph unicode="[" horiz-adv-x="806" d="M20 45q44 0 76.5 31.5t32.5 75.5v456q0 64 -45 109q45 45 45 106v459q0 44 -32.5 75.5t-76.5 31.5q42 45 109 45q65 0 107 -45q42 45 108 45h121q64 0 106 -45q45 45 109 45t106 -45q-44 0 -75 -31.5t-31 -75.5v-96q0 -61 -45 -109q-46 -43 -109 -43q33 29 33 76t-33 76 q-29 33 -75 33h-107v-396q0 -63 43 -106q-43 -43 -43 -109v-393h107q46 0 75 33q33 29 33 76q0 46 -33 75q63 0 109 -43q45 -48 45 -108v-96q0 -44 31 -75.5t75 -31.5q-42 -45 -106 -45t-109 45q-42 -45 -106 -45h-121q-66 0 -108 45q-42 -45 -107 -45q-67 0 -109 45z" />
<glyph unicode="\" horiz-adv-x="886" d="M20 1389q28 45 95 45q64 0 121 -45q28 45 94 45q64 0 121 -45q-36 0 -58 -20.5t-22 -53.5q0 -18 6 -33l141 -459q18 -62 78 -106q-18 -24 -18 -66q0 -22 6 -43l143 -456q12 -44 53 -75.5t86 -31.5q-28 -45 -94 -45q-64 0 -121 45q-28 -45 -94 -45q-64 0 -121 45 q36 0 58 22t22 56q0 9 -4 29l-143 456q-18 65 -78 109q18 24 18 61q0 24 -6 45l-141 459q-13 44 -55.5 75.5t-86.5 31.5z" />
<glyph unicode="]" horiz-adv-x="806" d="M20 45q44 0 76.5 31.5t32.5 75.5v96q0 62 43 108q46 43 109 43q-33 -33 -33 -75q0 -43 33 -76q29 -33 75 -33h109v393q0 64 -45 109q45 45 45 106v396h-109q-46 0 -75 -33q-33 -33 -33 -76t33 -76q-63 0 -109 43q-43 46 -43 109v96q0 44 -32.5 75.5t-76.5 31.5 q42 45 109 45q65 0 107 -45q42 45 108 45h121q64 0 106 -45q45 45 109 45t106 -45q-44 0 -75 -31.5t-31 -75.5v-459q0 -63 43 -106q-43 -43 -43 -109v-456q0 -44 31 -75.5t75 -31.5q-42 -45 -106 -45t-109 45q-42 -45 -106 -45h-121q-66 0 -108 45q-42 -45 -107 -45 q-67 0 -109 45z" />
<glyph unicode="_" horiz-adv-x="1150" d="M20 0q0 63 46 109q0 -45 31 -77t75 -32h297q64 0 106 45q45 -45 109 -45h295q44 0 76 32.5t32 76.5q43 -46 43 -109t-43 -106q43 -46 43 -109q0 -64 -43 -107q0 43 -32 75t-76 32h-295q-64 0 -109 -45q-42 45 -106 45h-297q-44 0 -75 -32t-31 -75q-46 43 -46 107 q0 63 46 109q-46 43 -46 106z" />
<glyph unicode="a" d="M20 45q44 0 82.5 31.5t47.5 75.5l92 458q2 10 2 29q0 44 -27 78q56 43 68 108l90 457l2 23q0 36 -25 60t-63 24q51 45 117 45q67 0 98 -45q36 45 98 45q66 0 117 -45q-38 0 -63 -24t-25 -60l2 -23l92 -459q12 -62 66 -106q-27 -34 -27 -76l4 -31l92 -458 q7 -44 45.5 -75.5t81.5 -31.5q-31 -45 -98 -45q-63 0 -117 45q-31 -45 -98 -45q-63 0 -117 45q40 0 65 25t25 63l-2 19l-141 700l-72 -367q60 0 103 -43q40 -43 40 -102t-40 -102q0 32 -22.5 53.5t-55.5 21.5q-30 0 -50 -21t-26 -54l-16 -86l-3 -23q0 -35 25.5 -59.5 t63.5 -24.5q-51 -45 -117 -45q-62 0 -98 45q-51 -45 -117 -45q-63 0 -99 45z" />
<glyph unicode="b" horiz-adv-x="901" d="M20 45q44 0 76.5 31.5t32.5 75.5v458q0 62 -45 107q45 45 45 108v457q0 44 -32.5 75.5t-76.5 31.5q42 45 109 45q65 0 107 -45q42 45 108 45q170 0 291 -121t121 -291q0 -136 -86 -250q97 -55 154 -150t57 -210q0 -170 -121 -291t-291 -121h-127q-64 0 -106 45 q-42 -45 -107 -45q-67 0 -109 45zM342 215h127q82 0 139.5 57.5t57.5 139.5t-57.5 140t-139.5 58h-127v-395zM342 825q83 0 141 57.5t58 139.5t-58 139.5t-141 57.5v-394z" />
<glyph unicode="c" horiz-adv-x="880" d="M20 717q46 46 46 108v232q0 157 109.5 267t264.5 110q156 0 267 -111q36 -31 77 -31q45 0 76 31q0 -61 -45 -106q-46 -46 -108 -46q0 -62 -43 -108q-46 -43 -109 -43q33 29 33 76q0 46 -33 75q-48 48 -115 48q-66 0 -112.5 -47.5t-46.5 -114.5v-232q0 -65 43 -108 q-43 -43 -43 -107v-233q0 -67 46.5 -114.5t112.5 -47.5q68 0 115 47.5t47 114.5q0 62 -49 108q45 45 111 45q63 0 108 -45t45 -108q0 -157 -110 -267t-267 -110q-155 0 -264.5 110t-109.5 267v233q0 61 -46 107z" />
<glyph unicode="d" horiz-adv-x="946" d="M20 45q44 0 76.5 31.5t32.5 75.5v458q0 62 -45 107q45 45 45 108v457q0 44 -32.5 75.5t-76.5 31.5q42 45 109 45q65 0 107 -45q42 45 106 45h162q157 0 267 -110t110 -267v-234q0 -64 45 -106q-45 -42 -45 -107v-233q0 -157 -110 -267t-267 -110h-162q-64 0 -106 45 q-42 -45 -107 -45q-67 0 -109 45zM342 215h162q68 0 115 47.5t47 114.5v233q0 65 -45 107q45 42 45 108v232q0 67 -47 114.5t-115 47.5h-162v-394q0 -63 45 -108q-45 -45 -45 -107v-395z" />
<glyph unicode="e" d="M20 45q44 0 76.5 31.5t32.5 75.5v458q0 62 -45 107q45 45 45 108v457q0 44 -32.5 75.5t-76.5 31.5q42 45 109 45q65 0 107 -45q42 45 108 45h322q64 0 106 -45q45 45 109 45t106 -45q-43 0 -74.5 -31.5t-31.5 -75.5v-96q0 -64 -45 -109q-43 -43 -107 -43q31 31 31 76 t-31 76q-33 33 -78 33h-307v-394h170q44 0 75.5 31.5t31.5 75.5q45 -42 45 -107q0 -66 -45 -108q45 -42 45 -107q0 -66 -45 -108q0 44 -31.5 76t-75.5 32h-170v-395h307q45 0 78 33q31 31 31 76q0 44 -31 75q64 0 107 -43q45 -45 45 -108v-96q0 -44 31.5 -75.5t74.5 -31.5 q-42 -45 -106 -45t-109 45q-42 -45 -106 -45h-324q-64 0 -106 45q-42 -45 -107 -45q-67 0 -109 45z" />
<glyph unicode="f" d="M20 45q44 0 76.5 31.5t32.5 75.5v458q0 62 -45 107q45 45 45 108v457q0 44 -32.5 75.5t-76.5 31.5q42 45 109 45q65 0 107 -45q42 45 108 45h322q64 0 106 -45q45 45 109 45t106 -45q-43 0 -74.5 -31.5t-31.5 -75.5v-96q0 -64 -45 -109q-43 -43 -107 -43q31 31 31 76 t-31 76q-33 33 -78 33h-309v-394h172q44 0 75.5 31.5t31.5 75.5q45 -42 45 -107q0 -66 -45 -108q45 -42 45 -107q0 -66 -45 -108q0 44 -31.5 76t-75.5 32h-172v-458q0 -44 32.5 -75.5t76.5 -31.5q-42 -45 -109 -45q-64 0 -106 45q-42 -45 -107 -45q-67 0 -109 45z" />
<glyph unicode="g" horiz-adv-x="880" d="M20 717q46 46 46 108v232q0 157 109.5 267t264.5 110q156 0 267 -111q36 -31 77 -31q45 0 76 31q0 -61 -45 -106q-46 -46 -108 -46q0 -62 -43 -108q-46 -43 -109 -43q33 29 33 76q0 46 -33 75q-48 48 -115 48q-66 0 -112.5 -47.5t-46.5 -114.5v-232q0 -65 43 -108 q-43 -43 -43 -107v-233q0 -67 46.5 -114.5t112.5 -47.5q68 0 115 47.5t47 114.5v233q-42 0 -70 -10.5t-55 -38.5q-45 42 -45 109q0 66 45 108q44 47 109 47h119q63 0 110 47q45 -45 45 -108q0 -61 -43 -107v-280q0 -157 -110 -267t-267 -110q-155 0 -264.5 110t-109.5 267 v233q0 61 -46 107z" />
<glyph unicode="h" d="M20 45q44 0 76.5 31.5t32.5 75.5v458q0 62 -45 107q45 45 45 108v457q0 44 -32.5 75.5t-76.5 31.5q42 45 109 45q65 0 107 -45q42 45 108 45q65 0 107 -45q-44 0 -75.5 -31.5t-31.5 -75.5v-510q74 53 166 53q82 0 156 -47v504q0 44 -32 75.5t-75 31.5q42 45 107 45 q64 0 106 -45q45 45 109 45t106 -45q-43 0 -74.5 -31.5t-31.5 -75.5v-457q0 -66 45 -108q-45 -42 -45 -107v-458q0 -44 31.5 -75.5t74.5 -31.5q-42 -45 -106 -45t-109 45q-42 -45 -106 -45q-65 0 -107 45q43 0 75 31.5t32 75.5v292q-42 -24 -78 -26q33 33 33 80 q0 46 -32.5 78t-78.5 32q-69 0 -117.5 -48.5t-48.5 -117.5v-290q0 -44 31.5 -75.5t75.5 -31.5q-42 -45 -107 -45q-66 0 -108 45q-42 -45 -107 -45q-67 0 -109 45z" />
<glyph unicode="i" horiz-adv-x="471" d="M20 45q44 0 76.5 31.5t32.5 75.5v458q0 62 -45 107q45 45 45 108v457q0 44 -32.5 75.5t-76.5 31.5q42 45 109 45q65 0 107 -45q42 45 108 45q65 0 107 -45q-44 0 -75.5 -31.5t-31.5 -75.5v-457q0 -65 43 -108q-43 -43 -43 -107v-458q0 -44 31.5 -75.5t75.5 -31.5 q-42 -45 -107 -45q-66 0 -108 45q-42 -45 -107 -45q-67 0 -109 45z" />
<glyph unicode="j" horiz-adv-x="901" d="M20 377q0 63 46 108t110 45t109 -45q-49 -46 -49 -108q0 -68 47 -115t114 -47q66 0 114 47.5t48 114.5v233q0 62 -45 107q45 45 45 108v457q0 44 -32 75.5t-76 31.5q42 45 108 45q65 0 107 -45q42 45 108 45q65 0 107 -45q-44 0 -75.5 -31.5t-31.5 -75.5l-2 -457 q0 -63 45 -108q-45 -45 -45 -107v-233q0 -157 -110 -267t-265 -110q-157 0 -267 110t-110 267z" />
<glyph unicode="k" horiz-adv-x="966" d="M20 45q44 0 76.5 31.5t32.5 75.5v458q0 62 -45 107q45 45 45 108v457q0 44 -32.5 75.5t-76.5 31.5q42 45 109 45q65 0 107 -45q42 45 108 45q65 0 107 -45q-44 0 -75.5 -31.5t-31.5 -75.5v-457h53l183 457q8 19 8 41q0 30 -19.5 48t-52.5 18q57 45 125 45q62 0 90 -45 q57 45 125 45q62 0 90 -45q-44 0 -88 -31.5t-63 -75.5l-226 -565l226 -565q19 -44 63 -75.5t88 -31.5q-28 -45 -90 -45q-68 0 -125 45q-28 -45 -90 -45q-68 0 -125 45q33 0 52.5 18t19.5 48q0 22 -8 41l-183 458h-53v-458q0 -44 31.5 -75.5t75.5 -31.5q-42 -45 -107 -45 q-66 0 -108 45q-42 -45 -107 -45q-67 0 -109 45z" />
<glyph unicode="l" d="M20 45q44 0 76.5 31.5t32.5 75.5v458q0 62 -45 107q45 45 45 108v457q0 44 -32.5 75.5t-76.5 31.5q42 45 109 45q65 0 107 -45q42 45 108 45q65 0 107 -45q-44 0 -75.5 -31.5t-31.5 -75.5v-457q0 -65 43 -108q-43 -43 -43 -107v-395h307q45 0 78 33q31 31 31 76 q0 44 -31 75q64 0 107 -43q45 -45 45 -108v-96q0 -44 31.5 -75.5t74.5 -31.5q-42 -45 -106 -45t-109 45q-42 -45 -106 -45h-322q-66 0 -108 45q-42 -45 -107 -45q-67 0 -109 45z" />
<glyph unicode="m" horiz-adv-x="1374" d="M20 45q44 0 76.5 31.5t32.5 75.5v458q0 62 -45 107q45 45 45 108v457q0 44 -32.5 75.5t-76.5 31.5q36 45 117 45q77 0 150 -44.5t98 -107.5l303 -754l301 754q25 63 98 107.5t150 44.5q81 0 117 -45q-44 0 -75.5 -31.5t-31.5 -75.5v-457q0 -65 43 -108q-43 -43 -43 -107 v-458q0 -44 31.5 -75.5t75.5 -31.5q-42 -45 -107 -45q-66 0 -108 45q-42 -45 -107 -45q-66 0 -108 45q44 0 76 31.5t32 75.5v700l-237 -592q17 -43 62 -75.5t89 -32.5q-40 -43 -117 -43q-76 0 -141 38q-68 -38 -143 -38q-78 0 -115 43q44 0 88.5 32.5t61.5 75.5l-238 592 v-700q0 -44 32.5 -75.5t76.5 -31.5q-42 -45 -109 -45q-64 0 -106 45q-42 -45 -107 -45q-67 0 -109 45z" />
<glyph unicode="n" d="M20 45q44 0 76.5 31.5t32.5 75.5v458q0 62 -45 107q45 45 45 108v457q0 44 -32.5 75.5t-76.5 31.5q36 45 117 45q77 0 150 -44.5t98 -107.5l281 -700v700q0 44 -32 75.5t-75 31.5q42 45 107 45q64 0 106 -45q45 45 109 45t106 -45q-43 0 -74.5 -31.5t-31.5 -75.5v-457 q0 -66 45 -108q-45 -42 -45 -107v-458q0 -44 31.5 -75.5t74.5 -31.5q-36 -45 -115 -45q-78 0 -151 44.5t-98 107.5l-279 700v-700q0 -44 31.5 -75.5t75.5 -31.5q-42 -45 -107 -45q-66 0 -108 45q-42 -45 -107 -45q-67 0 -109 45z" />
<glyph unicode="o" horiz-adv-x="882" d="M20 717q46 46 46 108v232q0 157 109.5 267t264.5 110q157 0 267 -110t110 -267v-232q0 -63 45 -108q-45 -45 -45 -107v-233q0 -157 -110 -267t-267 -110q-155 0 -264.5 110t-109.5 267v233q0 61 -46 107zM281 377q0 -67 46.5 -114.5t112.5 -47.5q68 0 115 47.5t47 114.5 v233q0 65 -45 107q45 42 45 108v232q0 67 -47 114.5t-115 47.5q-66 0 -112.5 -47.5t-46.5 -114.5v-232q0 -65 43 -108q-43 -43 -43 -107v-233z" />
<glyph unicode="p" horiz-adv-x="901" d="M20 45q44 0 76.5 31.5t32.5 75.5v458q0 62 -45 107q45 45 45 108v457q0 44 -32.5 75.5t-76.5 31.5q42 45 109 45q65 0 107 -45q42 45 106 45h127q170 0 291 -121t121 -291t-121 -291t-291 -121h-127v-458q0 -44 32.5 -75.5t76.5 -31.5q-42 -45 -109 -45q-64 0 -106 45 q-42 -45 -107 -45q-67 0 -109 45zM342 825h127q82 0 139.5 57.5t57.5 139.5t-57.5 139.5t-139.5 57.5h-127v-394z" />
<glyph unicode="q" horiz-adv-x="946" d="M20 717q46 46 46 108v232q0 157 109.5 267t264.5 110q157 0 267 -110t110 -267v-232q0 -63 45 -108q-45 -45 -45 -107v-233q0 -82 -31 -152l27 -28q44 -41 105 -41h8q0 -63 -45 -111q-45 -45 -111 -45q-63 0 -108 45l-17 16q-89 -61 -205 -61q-155 0 -264.5 110 t-109.5 267v233q0 61 -46 107zM281 377q0 -67 46.5 -114.5t112.5 -47.5q24 0 45 6q-36 36 -60.5 50t-64.5 14h-8q0 60 45 108q45 45 111 45q56 0 94 -32v204q0 65 -45 107q45 42 45 108v232q0 67 -47 114.5t-115 47.5q-66 0 -112.5 -47.5t-46.5 -114.5v-232q0 -65 43 -108 q-43 -43 -43 -107v-233z" />
<glyph unicode="r" horiz-adv-x="966" d="M20 45q44 0 76.5 31.5t32.5 75.5v458q0 62 -45 107q45 45 45 108v457q0 44 -32.5 75.5t-76.5 31.5q42 45 109 45q65 0 107 -45q42 45 106 45h127q170 0 291 -121t121 -291q0 -133 -78 -240.5t-201 -150.5l193 -479q19 -44 63 -75.5t88 -31.5q-28 -45 -90 -45 q-68 0 -125 45q-28 -45 -90 -45q-68 0 -125 45q33 0 52.5 18t19.5 48q0 22 -8 41l-183 458h-55v-458q0 -44 32.5 -75.5t76.5 -31.5q-42 -45 -109 -45q-64 0 -106 45q-42 -45 -107 -45q-67 0 -109 45zM342 825h127q82 0 139.5 57.5t57.5 139.5t-57.5 139.5t-139.5 57.5h-127 v-394z" />
<glyph unicode="s" horiz-adv-x="864" d="M20 377q0 62 46 108q45 45 110 45q64 0 109 -45q-49 -46 -49 -108q0 -68 47 -115t114 -47q66 0 113 47.5t47 114.5q0 61 -33.5 107.5t-103.5 95.5q-42 28 -84 28l-29 -4q-12 60 -63 98q-89 70 -142 155t-53 200q0 157 110 267t267 110q152 0 266 -111q31 -31 76 -31 t76 31q0 -64 -45 -106q-43 -46 -107 -46q0 -60 -45 -108q-46 -43 -108 -43q32 28 32 76q0 47 -32 75q-48 48 -113 48q-68 0 -115 -47.5t-47 -114.5q0 -53 25.5 -94.5t77.5 -81.5q36 -29 86 -29l26 2q9 -57 64 -96q50 -36 86.5 -70t71 -80.5t53 -104.5t18.5 -126 q0 -157 -110 -267t-265 -110q-157 0 -267 110t-110 267z" />
<glyph unicode="t" d="M20 1389q42 45 109 45q65 0 107 -45q42 45 108 45h322q64 0 106 -45q45 45 109 45t106 -45q-43 0 -74.5 -31.5t-31.5 -75.5v-96q0 -64 -45 -109q-43 -43 -107 -43q31 31 31 76t-31 76q-33 33 -78 33h-47v-394q0 -63 45 -108q-45 -45 -45 -107v-458q0 -44 32.5 -75.5 t76.5 -31.5q-45 -45 -109 -45t-106 45q-45 -45 -109 -45t-106 45q44 0 75 31.5t31 75.5v458q0 64 -43 107q43 43 43 108v394h-33q-46 0 -75 -33q-33 -33 -33 -76t33 -76q-63 0 -109 43q-43 46 -43 109v96q0 44 -32.5 75.5t-76.5 31.5z" />
<glyph unicode="u" d="M20 1389q42 45 109 45q65 0 107 -45q42 45 106 45q67 0 109 -45q-44 0 -76.5 -31.5t-32.5 -75.5v-457q0 -63 45 -108q-45 -45 -45 -107v-233q0 -67 48 -114.5t114 -47.5q68 0 115 47.5t47 114.5v233q0 65 -45 107q45 42 45 106v459q0 44 -32.5 75.5t-76.5 31.5 q45 45 109 45t106 -45q45 45 109 45t106 -45q-43 0 -74.5 -31.5t-31.5 -75.5v-457q0 -66 45 -108q-45 -42 -45 -107v-233q0 -157 -110 -267t-267 -110q-155 0 -265 110t-110 267v233q-3 65 -45 107q45 45 45 106v459q0 44 -32.5 75.5t-76.5 31.5z" />
<glyph unicode="v" d="M20 1389q36 45 99 45q66 0 117 -45q36 45 98 45q66 0 117 -45q-38 0 -63.5 -24.5t-25.5 -59.5l3 -23l139 -700l141 700l2 18q0 38 -25.5 63.5t-64.5 25.5q54 45 117 45q67 0 98 -45q54 45 117 45q67 0 98 -45q-43 0 -81.5 -31.5t-45.5 -75.5l-92 -459l-4 -30 q0 -42 27 -76q-54 -44 -66 -107l-92 -458l-2 -23q0 -36 25 -60t63 -24q-51 -45 -117 -45q-62 0 -98 45q-31 -45 -98 -45q-66 0 -117 45q38 0 63 24t25 60l-2 23l-90 458q-13 64 -68 107q27 34 27 80q0 18 -2 28l-92 457q-9 44 -47.5 75.5t-82.5 31.5z" />
<glyph unicode="w" horiz-adv-x="1546" d="M20 1389q36 45 99 45q66 0 117 -45q36 45 98 45q66 0 117 -45q-38 0 -63.5 -24.5t-25.5 -59.5l3 -23l139 -700l141 700l2 18q0 38 -25.5 63.5t-64.5 25.5q54 45 117 45q67 0 98 -45q36 45 100 45t115 -45q-38 0 -63 -25.5t-25 -63.5l2 -18l141 -700l140 700l2 23 q0 36 -25 60t-63 24q51 45 116 45q63 0 99 -45q51 45 116 45q63 0 99 -45q-44 0 -82 -31.5t-47 -75.5l-92 -457q-2 -10 -2 -28q0 -47 26 -80q-54 -42 -67 -107l-91 -458l-2 -23q0 -36 25 -60t63 -24q-51 -45 -116 -45q-68 0 -99 45q-36 -45 -98 -45q-66 0 -117 45 q38 0 63 24t25 60l-2 23l-141 700l-139 -700l-2 -23q0 -36 25 -60t63 -24q-51 -45 -117 -45q-62 0 -98 45q-31 -45 -98 -45q-66 0 -117 45q38 0 63 24t25 60l-2 23l-90 458q-13 64 -68 107q27 34 27 80q0 18 -2 28l-92 457q-9 44 -47.5 75.5t-82.5 31.5z" />
<glyph unicode="x" horiz-adv-x="1009" d="M20 45q44 0 88.5 31.5t61.5 75.5l184 458q4 16 4 23q0 35 -49 84q49 49 49 86q0 6 -4 22l-184 457q-17 44 -61.5 75.5t-88.5 31.5q25 45 91 45q64 0 125 -45q25 45 90 45q64 0 125 -45q-33 0 -53.5 -19t-20.5 -49q0 -20 8 -39l119 -297l119 297q8 19 8 39q0 31 -20 49.5 t-52 18.5q57 45 125 45q62 0 90 -45q57 45 125 45q62 0 90 -45q-44 0 -88 -31.5t-63 -75.5l-183 -457q-4 -16 -4 -22q0 -39 47 -86q-47 -47 -47 -84q0 -7 4 -23l183 -458q19 -44 62.5 -75.5t86.5 -31.5q-25 -45 -88 -45q-66 0 -127 45q-25 -45 -88 -45q-66 0 -127 45 q34 0 54 18.5t20 49.5q0 20 -8 39l-119 297l-119 -297q-8 -19 -8 -39q0 -30 20.5 -49t53.5 -19q-61 -45 -125 -45q-65 0 -90 45q-61 -45 -125 -45q-66 0 -91 45z" />
<glyph unicode="y" d="M20 1389q25 45 91 45q64 0 125 -45q25 45 90 45q64 0 125 -45q-33 0 -53.5 -19t-20.5 -49q0 -20 8 -39l119 -297l119 297q8 19 8 39q0 31 -20 49.5t-52 18.5q57 45 125 45q62 0 90 -45q57 45 125 45q63 0 88 -45q-43 0 -86.5 -31.5t-62.5 -75.5l-183 -457 q-16 -50 -16 -67q0 -25 16 -41q-43 -43 -43 -107v-458q0 -44 31.5 -75.5t75.5 -31.5q-42 -45 -107 -45q-63 0 -108 45q-42 -45 -107 -45q-63 0 -108 45q44 0 76 31.5t32 75.5v458q0 62 -45 107q17 17 17 45q0 20 -15 63l-184 457q-17 44 -61.5 75.5t-88.5 31.5z" />
<glyph unicode="z" horiz-adv-x="1044" d="M20 1389q42 45 109 45q65 0 107 -45q42 45 108 45h356q66 0 91 -45q61 45 124 45q66 0 91 -45q-44 0 -88.5 -31.5t-61.5 -75.5l-182 -457q55 3 96 47q45 -42 45 -108q0 -67 -45 -109q-45 -45 -108 -45h-76l-158 -395h260q47 0 76 33q33 29 33 76q0 46 -33 75 q62 0 108 -43q43 -46 43 -108v-96q0 -44 32.5 -75.5t76.5 -31.5q-45 -45 -109 -45t-106 45q-45 -45 -109 -45h-356q-65 0 -90 45q-61 -45 -125 -45q-65 0 -90 45q44 0 88 31.5t61 75.5l183 456q-56 -3 -97 -47q-45 42 -45 109q0 66 45 108q44 47 109 47h74l157 394h-258 q-46 0 -75 -33q-33 -33 -33 -76t33 -76q-63 0 -109 43q-43 46 -43 109v96q0 44 -32.5 75.5t-76.5 31.5z" />
<glyph unicode="{" horiz-adv-x="528" d="M20 717q113 110 113 268v137q0 156 111 267q45 45 108 45q66 0 111 -45t45 -111h-8q-61 0 -105 -41q-47 -50 -47 -115v-137q0 -159 -112 -268q112 -109 112 -268v-138q0 -64 47 -114q44 -41 105 -41h8q0 -66 -45 -111t-111 -45q-63 0 -108 45q-111 111 -111 266v138 q0 158 -113 268z" />
<glyph unicode="|" horiz-adv-x="471" d="M20 -170q44 0 76.5 31.5t32.5 75.5v671q0 64 -45 109q45 45 45 106v674q0 44 -32.5 75.5t-76.5 31.5q42 45 109 45q65 0 107 -45q42 45 108 45q65 0 107 -45q-44 0 -75.5 -31.5t-31.5 -75.5v-674q0 -63 43 -106q-43 -43 -43 -109v-671q0 -44 31.5 -75.5t75.5 -31.5 q-42 -45 -107 -45q-66 0 -108 45q-42 -45 -107 -45q-67 0 -109 45z" />
<glyph unicode="}" horiz-adv-x="528" d="M20 156h9q60 0 104 41q47 50 47 114v138q0 158 113 268q-113 110 -113 268v137q0 65 -47 115q-44 41 -104 41h-9q0 65 46 111q45 45 110 45q64 0 109 -45q110 -110 110 -267v-137q0 -158 113 -268q-113 -110 -113 -268v-138q0 -156 -110 -266q-45 -45 -109 -45 q-65 0 -110 45q-46 46 -46 111z" />
<glyph unicode="~" horiz-adv-x="995" d="M20 756q0 65 46 108q80 80 198 80q103 0 273 -70q145 -55 190 -55q32 0 51 19q41 44 41 104v8q64 0 111 -47q45 -42 45 -108q0 -67 -45 -109q-79 -82 -199 -82q-45 0 -98 12.5t-86.5 25t-87.5 34.5q-145 55 -191 55q-33 0 -51 -18q-41 -44 -41 -105v-8q-62 0 -110 45 q-46 46 -46 111z" />
<glyph unicode="&#xa1;" horiz-adv-x="471" d="M20 45q44 0 76.5 31.5t32.5 75.5v806q0 44 -32.5 76.5t-76.5 32.5q43 43 109 43q64 0 107 -43q43 43 108 43q64 0 107 -43q-44 0 -75.5 -32.5t-31.5 -76.5v-806q0 -44 31.5 -75.5t75.5 -31.5q-42 -45 -107 -45q-66 0 -108 45q-42 -45 -107 -45q-67 0 -109 45zM129 1325 q0 44 31.5 76.5t75.5 32.5t76 -32.5t32 -76.5q0 -43 -32 -74.5t-76 -31.5t-75.5 31.5t-31.5 74.5z" />
<glyph unicode="&#xa2;" horiz-adv-x="880" d="M20 717q46 46 46 108q0 126 75 225.5t193 135.5v96q0 44 -32.5 75.5t-76.5 31.5q45 45 109 45t106 -45q45 45 109 45t106 -45q-43 0 -74.5 -31.5t-31.5 -75.5v-96q92 -27 158 -96q36 -31 77 -31q45 0 76 31q0 -62 -45 -107t-108 -45q0 -64 -43 -107q-45 -45 -109 -45 q33 29 33 76t-33 76q-47 47 -115 47q-66 0 -112.5 -47t-46.5 -113q0 -65 43 -108q-43 -43 -43 -107q0 -67 46.5 -114t112.5 -47q68 0 115 47q43 43 43 104v8q65 0 109 -47q47 -44 47 -108q0 -65 -47 -109q-66 -69 -158 -96v-96q0 -44 31.5 -75.5t74.5 -31.5 q-42 -45 -106 -45t-109 45q-42 -45 -106 -45t-109 45q44 0 76.5 31.5t32.5 75.5v96q-118 36 -193 135t-75 227q0 61 -46 107z" />
<glyph unicode="&#xa3;" horiz-adv-x="997" d="M20 0q0 155 109 258q40 34 49 88q4 20 4 31v233q-51 0 -83.5 -28.5t-32.5 -79.5q-46 43 -46 108q0 64 46 107q-46 43 -46 106q0 66 46 109q0 -45 31 -77t75 -32h10v234q0 157 110 267t267 110q153 0 264 -111q36 -31 78 -31q45 0 76 31q0 -61 -45 -106q-46 -46 -109 -46 q0 -62 -43 -108q-46 -43 -108 -43q33 29 33 76q0 46 -33 75q-48 48 -113 48q-67 0 -114.5 -47.5t-47.5 -114.5v-234h123q44 0 75.5 32.5t31.5 76.5q45 -42 45 -109q0 -64 -45 -106q45 -42 45 -109q0 -64 -45 -106q0 44 -31.5 75t-75.5 31h-123v-231q0 -83 -37 -162h281 q47 0 76 33q33 29 33 76q0 46 -33 75q63 0 106 -43q45 -45 45 -108v-96q0 -44 32.5 -75.5t76.5 -31.5q-45 -45 -109 -45t-106 45q-45 -45 -109 -45h-633z" />
<glyph unicode="&#xa5;" d="M20 1389q25 45 91 45q64 0 125 -45q25 45 90 45q64 0 125 -45q-33 0 -53.5 -19t-20.5 -49q0 -20 8 -39l119 -297l119 297q8 19 8 39q0 31 -20 49.5t-54 18.5q61 45 127 45q63 0 88 -45q61 45 127 45q63 0 88 -45q-43 0 -86.5 -31.5t-62.5 -75.5l-140 -350q62 3 105 49 q45 -48 45 -109q0 -62 -45 -110q-45 -45 -111 -45h-80v-109h80q66 0 111 -45t45 -108q0 -64 -45 -109q-47 47 -111 47h-80v-241q0 -44 31.5 -75.5t75.5 -31.5q-42 -45 -107 -45q-63 0 -108 45q-42 -45 -107 -45q-63 0 -108 45q44 0 76 31.5t32 75.5v241h-82q-64 0 -108 -47 q-45 42 -45 109q0 66 45 108q42 45 108 45h82v109h-82q-66 0 -108 45q-45 45 -45 110q0 64 45 109q43 -46 104 -49l-141 350q-17 44 -61.5 75.5t-88.5 31.5z" />
<glyph unicode="&#xa7;" horiz-adv-x="864" d="M20 162q0 62 46 108q45 45 110 45q64 0 109 -45q-49 -46 -49 -108q0 -68 47 -115t114 -47q66 0 113 47.5t47 114.5q0 44 -18 82q-31 60 -142 137l-45 31q-55 36 -85 58t-78 66t-74 83.5t-46 98.5t-20 124q0 116 66 211q-66 95 -66 219q0 157 110 267t267 110 q152 0 266 -111q31 -31 76 -31t76 31q0 -64 -45 -106q-43 -46 -107 -46q0 -60 -45 -108q-46 -43 -108 -43q32 28 32 76q0 47 -32 75q-48 48 -113 48q-68 0 -115 -47t-47 -115q0 -42 19 -82q30 -59 143 -137l45 -31q38 -25 60 -40.5t58 -44t58 -51.5t48.5 -57.5t41 -68 t25 -77.5t10.5 -91q0 -120 -63 -211q63 -95 63 -219q0 -157 -110 -267t-265 -110q-157 0 -267 110t-110 267zM264 842q0 -33 11 -62.5t26.5 -51t46 -47.5t55.5 -43t70.5 -48t75.5 -53q8 24 8 55q0 33 -11 62.5t-26.5 51t-46 47t-55 43t-69.5 48.5t-75 53q-10 -30 -10 -55z " />
<glyph unicode="&#xa8;" horiz-adv-x="577" d="M20 1325q0 44 32.5 76.5t76.5 32.5q43 0 75 -32.5t32 -76.5q0 -43 -32 -74.5t-75 -31.5q-44 0 -76.5 31.5t-32.5 74.5zM344 1325q0 44 31.5 76.5t75.5 32.5t75 -32t31 -77q0 -43 -31 -74.5t-75 -31.5t-75.5 31.5t-31.5 74.5z" />
<glyph unicode="&#xa9;" horiz-adv-x="847" d="M20 547v340q0 167 118.5 285t285.5 118t285 -118t118 -285v-340q0 -167 -118 -285.5t-285 -118.5t-285.5 118.5t-118.5 285.5zM129 547q0 -123 86 -209t209 -86t209 86t86 209v340q0 123 -86 209t-209 86t-209 -86t-86 -209v-340zM213 717q23 23 23 53v117q0 78 55 133 t133 55t133 -55q14 -14 39 -14q23 0 37 14q0 -30 -23 -53t-53 -23q0 -31 -22 -53q-20 -23 -54 -23q17 17 17 39q0 20 -17 37q-23 23 -57 23t-58 -23t-24 -57v-117q0 -26 23 -53q-23 -27 -23 -53v-117q0 -34 24 -57t58 -23t57 23t23 57q0 33 -25 55q27 23 56 23q28 0 55 -23 q22 -22 22 -55q0 -78 -55 -133.5t-133 -55.5t-133 55.5t-55 133.5v117q0 30 -23 53z" />
<glyph unicode="&#xab;" horiz-adv-x="1048" d="M20 717l166 413q9 21 9 39q0 30 -20.5 49t-53.5 19q65 45 125 45q63 0 90 -45q65 45 125 45q63 0 90 -45q-44 0 -88.5 -32t-61.5 -75l-165 -413l165 -414q17 -44 61 -75t89 -31q-27 -45 -90 -45q-60 0 -125 45q-27 -45 -90 -45q-60 0 -125 45q33 0 53.5 18.5t20.5 48.5 q0 18 -9 39zM498 717l166 413q8 19 8 39q0 30 -20.5 49t-53.5 19q65 45 127 45q61 0 88 -45q65 45 127 45q61 0 88 -45q-44 0 -88 -32t-61 -75l-166 -413l166 -414q17 -44 61 -75t88 -31q-27 -45 -88 -45q-62 0 -127 45q-27 -45 -88 -45q-62 0 -127 45q33 0 53.5 18.5 t20.5 48.5q0 20 -8 39z" />
<glyph unicode="&#xad;" horiz-adv-x="0" />
<glyph unicode="&#xae;" horiz-adv-x="847" d="M20 547v340q0 167 118.5 285t285.5 118t285 -118t118 -285v-340q0 -167 -118 -285.5t-285 -118.5t-285.5 118.5t-118.5 285.5zM129 547q0 -123 86 -210t209 -87t209 87t86 210v340q0 123 -86 209t-209 86t-209 -86t-86 -209v-340zM193 381q22 0 37.5 15.5t15.5 37.5v230 q0 30 -23 53q23 23 23 53v229q0 22 -15.5 38t-37.5 16q22 22 53 22q34 0 53 -22q22 22 55 22h62q86 0 146.5 -60.5t60.5 -146.5q0 -67 -39 -119.5t-101 -74.5l97 -240q9 -22 30.5 -37.5t44.5 -15.5q-13 -23 -45 -23q-30 0 -63 23q-13 -23 -45 -23t-62 23q17 0 27 10t10 25 l-4 18l-92 230h-27v-230q0 -22 15.5 -37.5t38.5 -15.5q-23 -23 -54 -23q-32 0 -55 23q-20 -23 -53 -23q-30 0 -53 23zM354 770h62q41 0 69.5 29t28.5 69q0 41 -28.5 70t-69.5 29h-62v-197z" />
<glyph unicode="&#xb0;" horiz-adv-x="792" d="M20 1057q0 157 110 267t267 110q155 0 265 -110t110 -267q0 -155 -110 -266t-265 -111q-156 0 -266.5 110.5t-110.5 266.5zM236 1057q0 -66 47 -114t114 -48q66 0 113 48t47 114q0 67 -47 114.5t-113 47.5q-67 0 -114 -47t-47 -115z" />
<glyph unicode="&#xb7;" horiz-adv-x="256" d="M20 717q0 44 32 75t77 31q43 0 75 -31t32 -75t-32 -76.5t-75 -32.5q-44 0 -76.5 32.5t-32.5 76.5z" />
<glyph unicode="&#xbb;" horiz-adv-x="1048" d="M20 197q44 0 88.5 31.5t61.5 74.5l166 414l-166 413q-17 44 -61.5 75.5t-88.5 31.5q27 45 91 45q60 0 125 -45q27 45 90 45q60 0 125 -45q-33 0 -53.5 -19.5t-20.5 -50.5q0 -21 8 -37l166 -413l-166 -414q-8 -19 -8 -39q0 -30 20.5 -48.5t53.5 -18.5q-65 -45 -125 -45 q-63 0 -90 45q-65 -45 -125 -45q-64 0 -91 45zM498 197q44 0 88 31.5t63 74.5l164 414l-164 413q-19 44 -63 75.5t-88 31.5q27 45 90 45q60 0 125 -45q27 45 90 45q60 0 125 -45q-33 0 -52.5 -19t-19.5 -49q0 -20 8 -39l164 -413l-164 -414q-8 -19 -8 -41q0 -30 19.5 -47.5 t52.5 -17.5q-65 -45 -125 -45q-63 0 -90 45q-65 -45 -125 -45q-63 0 -90 45z" />
<glyph unicode="&#xbf;" horiz-adv-x="792" d="M20 377q0 69 15 126t38.5 97t52 74.5t57.5 65t52.5 61t38.5 70.5t15 87q0 44 -31.5 76.5t-75.5 32.5q43 43 107 43q62 0 108 -43q43 43 107 43q62 0 108 -43q-44 0 -76 -32.5t-32 -76.5q0 -79 -20 -144t-49.5 -105.5t-64.5 -81t-64.5 -72.5t-49.5 -78t-20 -100 q0 -68 47 -115t114 -47q66 0 113 47.5t47 114.5q0 61 -47 108q42 45 108 45q64 0 109 -45t45 -108q0 -157 -110 -267t-265 -110q-157 0 -267 110t-110 267zM289 1325q0 44 32 76.5t76 32.5t75.5 -32.5t31.5 -76.5q0 -43 -31.5 -74.5t-75.5 -31.5t-76 31.5t-32 74.5z" />
<glyph unicode="&#xc0;" d="M20 45q44 0 82.5 31.5t47.5 75.5l92 458q2 10 2 29q0 44 -27 78q56 43 68 106l90 459l2 23q0 36 -25 60t-63 24q51 45 117 45q67 0 98 -45q36 45 98 45q66 0 117 -45q-38 0 -63 -24t-25 -60l2 -23l92 -459q12 -62 66 -106q-27 -34 -27 -76l4 -33l92 -456 q7 -44 45.5 -75.5t81.5 -31.5q-31 -45 -98 -45q-63 0 -117 45q-31 -45 -98 -45q-64 0 -115 45q38 0 63 25t25 63l-2 19l-141 700l-72 -367q60 0 103 -43q40 -43 40 -102t-40 -102q0 32 -22.5 53.5t-55.5 21.5q-30 0 -50 -21t-26 -54l-16 -86l-3 -23q0 -35 25.5 -59.5 t63.5 -24.5q-51 -45 -117 -45q-62 0 -98 45q-51 -45 -117 -45q-63 0 -99 45zM438 1647v92q56 -5 93.5 -46t37.5 -98q0 -25 -10 -55q-6 46 -40.5 76.5t-80.5 30.5z" />
<glyph unicode="&#xc1;" d="M20 45q44 0 82.5 31.5t47.5 75.5l92 458q2 10 2 29q0 44 -27 78q56 43 68 106l90 459l2 23q0 36 -25 60t-63 24q51 45 117 45q67 0 98 -45q36 45 98 45q66 0 117 -45q-38 0 -63 -24t-25 -60l2 -23l92 -459q12 -62 66 -106q-27 -34 -27 -76l4 -33l92 -456 q7 -44 45.5 -75.5t81.5 -31.5q-31 -45 -98 -45q-63 0 -117 45q-31 -45 -98 -45q-64 0 -115 45q38 0 63 25t25 63l-2 19l-141 700l-72 -367q60 0 103 -43q40 -43 40 -102t-40 -102q0 32 -22.5 53.5t-55.5 21.5q-30 0 -50 -21t-26 -54l-16 -86l-3 -23q0 -35 25.5 -59.5 t63.5 -24.5q-51 -45 -117 -45q-62 0 -98 45q-51 -45 -117 -45q-63 0 -99 45zM438 1595q0 57 37.5 98t93.5 46v-92q-46 0 -80 -30.5t-38 -76.5q-13 29 -13 55z" />
<glyph unicode="&#xc2;" d="M20 45q44 0 82.5 31.5t47.5 75.5l92 458q2 10 2 29q0 44 -27 78q56 43 68 106l90 459l2 23q0 36 -25 60t-63 24q51 45 117 45q67 0 98 -45q36 45 98 45q66 0 117 -45q-38 0 -63 -24t-25 -60l2 -23l92 -459q12 -62 66 -106q-27 -34 -27 -76l4 -33l92 -456 q7 -44 45.5 -75.5t81.5 -31.5q-31 -45 -98 -45q-63 0 -117 45q-31 -45 -98 -45q-63 0 -117 45q38 0 63 24t25 60l-2 23l-139 700l-72 -367q60 0 103 -43q40 -43 40 -102t-40 -102q0 32 -22.5 53.5t-55.5 21.5q-30 0 -50 -21t-26 -54l-16 -86l-3 -23q0 -35 25.5 -59.5 t63.5 -24.5q-51 -45 -117 -45q-62 0 -98 45q-51 -45 -117 -45q-63 0 -99 45zM397 1595q0 37 28.5 69t78.5 52q51 -20 79.5 -52t28.5 -69q0 -28 -18 -55q-12 56 -90 88q-79 -34 -88 -88q-19 28 -19 55z" />
<glyph unicode="&#xc3;" d="M20 45q44 0 82.5 31.5t47.5 75.5l92 458q2 10 2 29q0 44 -27 78q56 43 68 106l90 459l2 23q0 36 -25 60t-63 24q51 45 117 45q67 0 98 -45q36 45 98 45q66 0 117 -45q-38 0 -63 -24t-25 -60l2 -23l92 -459q12 -62 66 -106q-27 -34 -27 -76l4 -33l92 -456 q7 -44 45.5 -75.5t81.5 -31.5q-31 -45 -98 -45q-63 0 -117 45q-31 -45 -98 -45q-64 0 -115 45q38 0 63 25t25 63l-2 19l-141 700l-72 -367q60 0 103 -43q40 -43 40 -102t-40 -102q0 32 -22.5 53.5t-55.5 21.5q-30 0 -50 -21t-26 -54l-16 -86l-3 -23q0 -35 25.5 -59.5 t63.5 -24.5q-51 -45 -117 -45q-62 0 -98 45q-51 -45 -117 -45q-63 0 -99 45zM266 1618q0 35 23 55q38 41 98 41q42 0 137 -37q76 -26 94 -26q19 0 27 8q21 24 21 57q30 0 55 -22q22 -25 22 -56q0 -30 -22 -55q-44 -41 -100 -41q-46 0 -136 37q-79 27 -96 27q-15 0 -24 -9 q-21 -24 -21 -51v-6q-33 0 -55 25q-23 20 -23 53z" />
<glyph unicode="&#xc4;" d="M20 45q44 0 82.5 31.5t47.5 75.5l92 458q2 10 2 29q0 44 -27 78q56 46 68 106l90 459l2 23q0 36 -25 60t-63 24q51 45 117 45q62 0 98 -45q36 45 98 45q66 0 117 -45q-38 0 -63 -24t-25 -60l2 -23l92 -459q12 -62 66 -106q-27 -34 -27 -76l4 -33l90 -456 q9 -44 47.5 -75.5t81.5 -31.5q-31 -45 -98 -45q-63 0 -117 45q-31 -45 -98 -45q-63 0 -117 45q38 0 63 24t25 60l-2 23l-139 700l-72 -367q60 0 103 -43q40 -43 40 -102t-40 -102q0 32 -22.5 53.5t-55.5 21.5q-30 0 -50 -21t-26 -54l-16 -86l-3 -23q0 -35 25.5 -59.5 t63.5 -24.5q-51 -45 -117 -45q-62 0 -98 45q-51 -45 -117 -45q-63 0 -99 45zM342 1595q0 22 16 38t39 16q22 0 38 -16t16 -38q0 -23 -16 -39t-38 -16q-23 0 -39 16t-16 39zM557 1595q0 22 16 38t39 16q22 0 38 -16t16 -38q0 -23 -16 -39t-38 -16q-23 0 -39 16t-16 39z" />
<glyph unicode="&#xc5;" d="M20 45q44 0 82.5 31.5t47.5 75.5l92 458q2 10 2 29q0 44 -27 78q56 43 68 106l90 459l2 23q0 36 -25 60t-63 24q51 45 117 45q67 0 98 -45q36 45 98 45q66 0 117 -45q-38 0 -63 -24t-25 -60l2 -23l92 -459q12 -62 66 -106q-27 -34 -27 -76l4 -33l92 -456 q7 -44 45.5 -75.5t81.5 -31.5q-31 -45 -98 -45q-63 0 -117 45q-31 -45 -98 -45q-64 0 -115 45q38 0 63 25t25 63l-2 19l-141 700l-72 -367q60 0 103 -43q40 -43 40 -102t-40 -102q0 32 -22.5 53.5t-55.5 21.5q-30 0 -50 -21t-26 -54l-16 -86l-3 -23q0 -35 25.5 -59.5 t63.5 -24.5q-51 -45 -117 -45q-62 0 -98 45q-51 -45 -117 -45q-63 0 -99 45zM397 1649q0 44 31.5 75t75.5 31t76 -31t32 -75t-32 -76.5t-76 -32.5t-75.5 32.5t-31.5 76.5zM461 1649q0 -19 12 -31t31 -12t32 12t13 31t-13 31t-32 12t-31 -12t-12 -31z" />
<glyph unicode="&#xc6;" horiz-adv-x="1423" d="M20 45q44 0 82.5 31.5t47.5 75.5l92 456q2 10 2 29q0 41 -27 80q56 43 68 106l90 459l2 23q0 36 -25 60t-63 24q55 45 117 45q65 0 98 -45q38 45 98 45h479q62 0 107 -45q48 45 108 45q62 0 107 -45q-43 0 -75 -31.5t-32 -75.5v-96q0 -64 -45 -109t-106 -45q31 36 31 78 q0 45 -31 76q-33 33 -78 33h-422l80 -396h205q44 0 75 32t31 77q45 -45 45 -109t-45 -106q45 -45 45 -109t-45 -106q0 44 -31 75t-75 31h-162l78 -393h221q42 0 78 31q31 36 31 78q0 44 -31 75q64 0 106 -45q45 -42 45 -106v-96q0 -44 32 -75.5t75 -31.5q-42 -45 -107 -45 q-63 0 -108 45q-42 -45 -107 -45h-200q-61 3 -109 45q-31 -45 -98 -45q-63 0 -117 45q38 0 63 24t25 60l-2 23l-139 698l-72 -365q60 0 103 -43q40 -43 40 -102t-40 -102q0 31 -23 53t-55 22q-29 0 -49.5 -21.5t-26.5 -53.5l-16 -86l-3 -23q0 -35 25.5 -59.5t63.5 -24.5 q-51 -45 -117 -45q-62 0 -98 45q-51 -45 -117 -45q-63 0 -99 45z" />
<glyph unicode="&#xc7;" horiz-adv-x="880" d="M20 717q46 46 46 106v234q0 157 109.5 267t264.5 110q156 0 267 -111q36 -31 77 -31q45 0 76 31q0 -61 -45 -106q-46 -46 -108 -46q0 -62 -43 -108q-46 -43 -109 -43q33 29 33 76q0 46 -33 75q-48 48 -115 48q-66 0 -112.5 -47.5t-46.5 -114.5v-234q0 -63 43 -106 q-43 -43 -43 -109v-231q0 -67 46.5 -114.5t112.5 -47.5q68 0 115 47.5t47 114.5q0 62 -49 108q45 45 111 45q63 0 108 -45t45 -108q0 -138 -89 -243t-222 -128l-6 -22q47 -21 76.5 -63t29.5 -93q0 -71 -54 -121.5t-130 -50.5q-92 0 -148 70q29 -13 62 -13q58 0 100.5 35.5 t42.5 85.5q0 51 -42 86t-101 35q-19 0 -43 -4l24 69q-111 39 -181 137t-70 220v231q0 63 -46 109z" />
<glyph unicode="&#xc8;" d="M20 45q44 0 76.5 31.5t32.5 75.5v456q0 64 -45 109q45 45 45 106v459q0 44 -32.5 75.5t-76.5 31.5q42 45 109 45q65 0 107 -45q42 45 108 45h322q64 0 106 -45q45 45 109 45t106 -45q-43 0 -74.5 -31.5t-31.5 -75.5v-96q0 -64 -45 -109q-43 -43 -107 -43q31 31 31 76 t-31 76q-33 33 -78 33h-307v-396h170q44 0 75.5 32.5t31.5 76.5q45 -42 45 -109q0 -64 -45 -106q45 -42 45 -109q0 -64 -45 -106q0 44 -31.5 75t-75.5 31h-170v-393h307q45 0 78 33q31 31 31 76q0 44 -31 75q64 0 107 -43q45 -45 45 -108v-96q0 -44 31.5 -75.5t74.5 -31.5 q-42 -45 -106 -45t-109 45q-42 -45 -106 -45h-324q-64 0 -106 45q-42 -45 -107 -45q-67 0 -109 45zM438 1647v92q56 -5 93.5 -46t37.5 -98q0 -25 -10 -55q-6 46 -40.5 76.5t-80.5 30.5z" />
<glyph unicode="&#xc9;" d="M20 45q44 0 76.5 31.5t32.5 75.5v456q0 64 -45 109q45 45 45 106v459q0 44 -32.5 75.5t-76.5 31.5q42 45 109 45q65 0 107 -45q42 45 108 45h322q64 0 106 -45q45 45 109 45t106 -45q-43 0 -74.5 -31.5t-31.5 -75.5v-96q0 -64 -45 -109q-43 -43 -107 -43q31 31 31 76 t-31 76q-33 33 -78 33h-307v-396h170q44 0 75.5 32.5t31.5 76.5q45 -42 45 -109q0 -64 -45 -106q45 -42 45 -109q0 -64 -45 -106q0 44 -31.5 75t-75.5 31h-170v-393h307q45 0 78 33q31 31 31 76q0 44 -31 75q64 0 107 -43q45 -45 45 -108v-96q0 -44 31.5 -75.5t74.5 -31.5 q-42 -45 -106 -45t-109 45q-42 -45 -106 -45h-324q-64 0 -106 45q-42 -45 -107 -45q-67 0 -109 45zM438 1595q0 57 37.5 98t93.5 46v-92q-46 0 -80 -30.5t-38 -76.5q-13 29 -13 55z" />
<glyph unicode="&#xca;" d="M20 45q44 0 76.5 31.5t32.5 75.5v456q0 64 -45 109q45 45 45 106v459q0 44 -32.5 75.5t-76.5 31.5q42 45 109 45q65 0 107 -45q42 45 108 45h322q64 0 106 -45q45 45 109 45t106 -45q-43 0 -74.5 -31.5t-31.5 -75.5v-96q0 -64 -45 -109q-43 -43 -107 -43q31 31 31 76 t-31 76q-33 33 -78 33h-307v-396h170q44 0 75.5 32.5t31.5 76.5q45 -42 45 -109q0 -64 -45 -106q45 -42 45 -109q0 -64 -45 -106q0 44 -31.5 75t-75.5 31h-170v-393h307q45 0 78 33q31 31 31 76q0 44 -31 75q64 0 107 -43q45 -45 45 -108v-96q0 -44 31.5 -75.5t74.5 -31.5 q-42 -45 -106 -45t-109 45q-42 -45 -106 -45h-324q-64 0 -106 45q-42 -45 -107 -45q-67 0 -109 45zM397 1595q0 37 28.5 69t78.5 52q51 -20 79.5 -52t28.5 -69q0 -28 -18 -55q-12 56 -90 88q-79 -34 -88 -88q-19 28 -19 55z" />
<glyph unicode="&#xcb;" d="M20 45q44 0 76.5 31.5t32.5 75.5v456q0 64 -45 109q45 45 45 106v459q0 44 -32.5 75.5t-76.5 31.5q42 45 109 45q65 0 107 -45q42 45 108 45h322q64 0 106 -45q45 45 109 45t106 -45q-43 0 -74.5 -31.5t-31.5 -75.5v-96q0 -64 -45 -109q-43 -43 -107 -43q31 31 31 76 t-31 76q-33 33 -78 33h-307v-396h170q44 0 75.5 32.5t31.5 76.5q45 -42 45 -109q0 -64 -45 -106q45 -42 45 -109q0 -64 -45 -106q0 44 -31.5 75t-75.5 31h-170v-393h307q45 0 78 33q31 31 31 76q0 44 -31 75q64 0 107 -43q45 -45 45 -108v-96q0 -44 31.5 -75.5t74.5 -31.5 q-42 -45 -106 -45t-109 45q-42 -45 -106 -45h-324q-64 0 -106 45q-42 -45 -107 -45q-67 0 -109 45zM342 1595q0 22 16 38t39 16q22 0 38 -16t16 -38q0 -23 -16 -39t-38 -16q-23 0 -39 16t-16 39zM557 1595q0 22 16 38t39 16q22 0 38 -16t16 -38q0 -23 -16 -39t-38 -16 q-23 0 -39 16t-16 39z" />
<glyph unicode="&#xcc;" horiz-adv-x="471" d="M20 45q44 0 76.5 31.5t32.5 75.5v456q0 64 -45 109q45 45 45 106v459q0 44 -32.5 75.5t-76.5 31.5q42 45 109 45q65 0 107 -45q42 45 108 45q65 0 107 -45q-44 0 -75.5 -31.5t-31.5 -75.5v-459q0 -63 43 -106q-43 -43 -43 -109v-456q0 -44 31.5 -75.5t75.5 -31.5 q-42 -45 -107 -45q-66 0 -108 45q-42 -45 -107 -45q-67 0 -109 45zM170 1647v92q56 -5 93.5 -46t37.5 -98q0 -25 -10 -55q-6 46 -40.5 76.5t-80.5 30.5z" />
<glyph unicode="&#xcd;" horiz-adv-x="471" d="M20 45q44 0 76.5 31.5t32.5 75.5v456q0 64 -45 109q45 45 45 106v459q0 44 -32.5 75.5t-76.5 31.5q42 45 109 45q65 0 107 -45q42 45 108 45q65 0 107 -45q-44 0 -75.5 -31.5t-31.5 -75.5v-459q0 -63 43 -106q-43 -43 -43 -109v-456q0 -44 31.5 -75.5t75.5 -31.5 q-42 -45 -107 -45q-66 0 -108 45q-42 -45 -107 -45q-67 0 -109 45zM170 1595q0 57 37.5 98t93.5 46v-92q-46 0 -80.5 -30.5t-40.5 -76.5q-10 30 -10 55z" />
<glyph unicode="&#xce;" horiz-adv-x="471" d="M20 45q44 0 76.5 31.5t32.5 75.5v456q0 64 -45 109q45 45 45 106v459q0 44 -32.5 75.5t-76.5 31.5q42 45 109 45q65 0 107 -45q42 45 108 45q65 0 107 -45q-44 0 -75.5 -31.5t-31.5 -75.5v-459q0 -63 43 -106q-43 -43 -43 -109v-456q0 -44 31.5 -75.5t75.5 -31.5 q-42 -45 -107 -45q-66 0 -108 45q-42 -45 -107 -45q-67 0 -109 45zM127 1595q0 36 29.5 68t79.5 53q50 -20 78 -52t28 -69q0 -26 -16 -55q-12 55 -90 88q-79 -34 -91 -88q-18 32 -18 55z" />
<glyph unicode="&#xcf;" horiz-adv-x="471" d="M20 45q44 0 76.5 31.5t32.5 75.5v456q0 64 -45 109q45 45 45 106v459q0 44 -32.5 75.5t-76.5 31.5q42 45 109 45q65 0 107 -45q42 45 108 45q65 0 107 -45q-44 0 -75.5 -31.5t-31.5 -75.5v-459q0 -63 43 -106q-43 -43 -43 -109v-456q0 -44 31.5 -75.5t75.5 -31.5 q-42 -45 -107 -45q-66 0 -108 45q-42 -45 -107 -45q-67 0 -109 45zM74 1595q0 22 16 38t39 16q22 0 37.5 -16t15.5 -38q0 -23 -15.5 -39t-37.5 -16q-23 0 -39 16t-16 39zM289 1595q0 22 16 38t39 16q22 0 37.5 -16t15.5 -38q0 -23 -15.5 -39t-37.5 -16q-23 0 -39 16t-16 39z " />
<glyph unicode="&#xd1;" d="M20 45q44 0 76.5 31.5t32.5 75.5v456q0 64 -45 109q45 45 45 106v459q0 44 -32.5 75.5t-76.5 31.5q36 45 117 45q77 0 150 -44.5t98 -107.5l281 -700v700q0 44 -32.5 75.5t-76.5 31.5q45 45 109 45t106 -45q45 45 109 45t106 -45q-43 0 -74.5 -31.5t-31.5 -75.5v-459 q0 -64 45 -106q-45 -42 -45 -109v-456q0 -44 31.5 -75.5t74.5 -31.5q-36 -45 -115 -45q-78 0 -151 44.5t-98 107.5l-279 700v-700q0 -44 31.5 -75.5t75.5 -31.5q-42 -45 -107 -45q-66 0 -108 45q-42 -45 -107 -45q-67 0 -109 45zM266 1618q0 35 23 55q38 41 98 41 q42 0 137 -37q76 -26 94 -26q19 0 27 8q21 24 21 57q30 0 55 -22q22 -25 22 -56q0 -30 -22 -55q-44 -41 -100 -41q-46 0 -136 37q-79 27 -96 27q-15 0 -24 -9q-21 -24 -21 -51v-6q-33 0 -55 25q-23 20 -23 53z" />
<glyph unicode="&#xd2;" horiz-adv-x="882" d="M20 717q46 46 46 106v234q0 157 109.5 267t264.5 110q157 0 267 -110t110 -267v-234q0 -61 45 -106q-45 -45 -45 -109v-231q0 -157 -110 -267t-267 -110q-155 0 -264.5 110t-109.5 267v231q0 63 -46 109zM281 377q0 -67 46.5 -114.5t112.5 -47.5q68 0 115 47.5t47 114.5 v231q0 67 -45 109q45 42 45 106v234q0 67 -47 114.5t-115 47.5q-66 0 -112.5 -47.5t-46.5 -114.5v-234q0 -63 43 -106q-43 -43 -43 -109v-231zM377 1647v92q54 -5 91.5 -46t37.5 -98q0 -32 -10 -55q-6 46 -39.5 76.5t-79.5 30.5z" />
<glyph unicode="&#xd3;" horiz-adv-x="882" d="M20 717q46 46 46 106v234q0 157 109.5 267t264.5 110q157 0 267 -110t110 -267v-234q0 -61 45 -106q-45 -45 -45 -109v-231q0 -157 -110 -267t-267 -110q-155 0 -264.5 110t-109.5 267v231q0 63 -46 109zM281 377q0 -67 46.5 -114.5t112.5 -47.5q68 0 115 47.5t47 114.5 v231q0 67 -45 109q45 42 45 106v234q0 67 -47 114.5t-115 47.5q-66 0 -112.5 -47.5t-46.5 -114.5v-234q0 -63 43 -106q-43 -43 -43 -109v-231zM377 1595q0 57 37.5 98t91.5 46v-92q-46 0 -79.5 -30.5t-39.5 -76.5q-10 22 -10 55z" />
<glyph unicode="&#xd4;" horiz-adv-x="882" d="M20 717q46 46 46 106v234q0 157 109.5 267t264.5 110q157 0 267 -110t110 -267v-234q0 -61 45 -106q-45 -45 -45 -109v-231q0 -157 -110 -267t-267 -110q-155 0 -264.5 110t-109.5 267v231q0 63 -46 109zM281 377q0 -67 46.5 -114.5t112.5 -47.5q68 0 115 47.5t47 114.5 v231q0 67 -45 109q45 42 45 106v234q0 67 -47 114.5t-115 47.5q-66 0 -112.5 -47.5t-46.5 -114.5v-234q0 -63 43 -106q-43 -43 -43 -109v-231zM334 1595q0 37 28 69t78 52q52 -20 80.5 -52t28.5 -69q0 -27 -19 -55q-12 56 -90 88q-76 -32 -88 -88q-18 27 -18 55z" />
<glyph unicode="&#xd5;" horiz-adv-x="882" d="M20 717q46 46 46 106v234q0 157 109.5 267t264.5 110q157 0 267 -110t110 -267v-234q0 -61 45 -106q-45 -45 -45 -109v-231q0 -157 -110 -267t-267 -110q-155 0 -264.5 110t-109.5 267v231q0 63 -46 109zM203 1618q0 33 22 55q41 41 99 41q42 0 137 -37q76 -26 94 -26 q19 0 27 8q20 23 20 51v6q33 0 55 -22q23 -26 23 -56q0 -29 -23 -55q-44 -41 -100 -41q-45 0 -135 37q-79 27 -94 27q-18 0 -27 -9q-20 -23 -20 -51v-6q-34 0 -56 25q-22 22 -22 53zM281 377q0 -67 46.5 -114.5t112.5 -47.5q68 0 115 47.5t47 114.5v231q0 67 -45 109 q45 42 45 106v234q0 67 -47 114.5t-115 47.5q-66 0 -112.5 -47.5t-46.5 -114.5v-234q0 -63 43 -106q-43 -43 -43 -109v-231z" />
<glyph unicode="&#xd6;" horiz-adv-x="882" d="M20 717q46 46 46 106v234q0 157 109.5 267t264.5 110q157 0 267 -110t110 -267v-234q0 -61 45 -106q-45 -45 -45 -109v-231q0 -157 -110 -267t-267 -110q-155 0 -264.5 110t-109.5 267v231q0 63 -46 109zM281 377q0 -67 46.5 -114.5t112.5 -47.5q68 0 115 47.5t47 114.5 v231q0 67 -45 109q45 42 45 106v234q0 67 -47 114.5t-115 47.5q-66 0 -112.5 -47.5t-46.5 -114.5v-234q0 -63 43 -106q-43 -43 -43 -109v-231zM281 1595q0 22 15 38t38 16q22 0 37.5 -16t15.5 -38q0 -23 -15.5 -39t-37.5 -16q-23 0 -38 16t-15 39zM496 1595q0 22 15 38 t38 16q22 0 37.5 -16t15.5 -38q0 -23 -15.5 -39t-37.5 -16q-23 0 -38 16t-15 39z" />
<glyph unicode="&#xd7;" horiz-adv-x="1067" d="M20 508q38 -33 76 -33q43 0 76 33l209 209l-209 209q-28 32 -76 32q-44 0 -76 -32q0 62 46 108q43 43 106 43q0 64 45 109t107 45q-31 -31 -31 -76q0 -42 31 -78l211 -209l208 209q31 36 31 78q0 45 -31 76q62 0 107 -45t45 -109q63 0 109 -43q43 -46 43 -108 q-28 32 -76 32q-44 0 -76 -32l-209 -209l209 -209q38 -33 76 -33q43 0 76 33q0 -63 -43 -109q-46 -43 -109 -43q0 -63 -45 -108t-107 -45q31 36 31 78q0 44 -31 75l-208 209l-211 -209q-31 -31 -31 -75q0 -42 31 -78q-62 0 -107 45t-45 108q-63 0 -106 43q-46 46 -46 109z " />
<glyph unicode="&#xd8;" horiz-adv-x="901" d="M20 23q22 0 45.5 16t32.5 37l41 88q-65 97 -65 213v231q0 66 -43 109q43 43 43 106v234q0 156 110.5 266.5t266.5 110.5q132 0 239 -86q10 23 10 32q0 14 -9.5 22.5t-24.5 8.5q33 23 63 23q33 0 43 -23q33 23 66 23q30 0 43 -23q-23 0 -46 -15.5t-32 -37.5l-41 -88 q65 -97 65 -213v-234q0 -63 43 -106q-43 -43 -43 -109v-231q0 -157 -110.5 -267t-265.5 -110q-133 0 -240 86q-10 -23 -10 -33q0 -13 10 -21.5t25 -8.5q-33 -23 -64 -23q-33 0 -43 23q-33 -23 -66 -23q-30 0 -43 23zM289 485l303 652q-49 82 -141 82q-66 0 -114 -47.5 t-48 -114.5v-234q0 -61 45 -106q-45 -45 -45 -109v-123zM309 297q22 -38 59.5 -60t82.5 -22q66 0 113.5 47.5t47.5 114.5v231q0 64 -45 109q45 45 45 106v125z" />
<glyph unicode="&#xd9;" d="M20 1389q42 45 109 45q65 0 107 -45q42 45 106 45q67 0 109 -45q-44 0 -76.5 -31.5t-32.5 -75.5v-459q0 -61 45 -106q-45 -45 -45 -109v-231q0 -67 48 -114.5t114 -47.5q68 0 115 47.5t47 114.5v233q0 65 -45 107q45 42 45 106v459q0 44 -32.5 75.5t-76.5 31.5 q45 45 109 45t106 -45q45 45 109 45t106 -45q-43 0 -74.5 -31.5t-31.5 -75.5v-459q0 -64 45 -106q-45 -42 -45 -109v-231q0 -157 -110 -267t-267 -110q-155 0 -265 110t-110 267v233q-3 65 -45 107q45 45 45 106v459q0 44 -32.5 75.5t-76.5 31.5zM438 1647v92 q56 -5 93.5 -46t37.5 -98q0 -25 -10 -55q-6 46 -40.5 76.5t-80.5 30.5z" />
<glyph unicode="&#xda;" d="M20 1389q42 45 109 45q65 0 107 -45q42 45 106 45q67 0 109 -45q-44 0 -76.5 -31.5t-32.5 -75.5v-459q0 -61 45 -106q-45 -45 -45 -109v-231q0 -67 48 -114.5t114 -47.5q68 0 115 47.5t47 114.5v233q0 65 -45 107q45 42 45 106v459q0 44 -32.5 75.5t-76.5 31.5 q45 45 109 45t106 -45q45 45 109 45t106 -45q-43 0 -74.5 -31.5t-31.5 -75.5v-459q0 -64 45 -106q-45 -42 -45 -109v-231q0 -157 -110 -267t-267 -110q-155 0 -265 110t-110 267v233q-3 65 -45 107q45 45 45 106v459q0 44 -32.5 75.5t-76.5 31.5zM438 1595q0 57 37.5 98 t93.5 46v-92q-46 0 -80 -30.5t-38 -76.5q-13 29 -13 55z" />
<glyph unicode="&#xdb;" d="M20 1389q42 45 109 45q65 0 107 -45q42 45 106 45q67 0 109 -45q-44 0 -76.5 -31.5t-32.5 -75.5v-459q0 -61 45 -106q-45 -45 -45 -109v-231q0 -67 48 -114.5t114 -47.5q68 0 115 47.5t47 114.5v233q0 65 -45 107q45 42 45 106v459q0 44 -32.5 75.5t-76.5 31.5 q45 45 109 45t106 -45q45 45 109 45t106 -45q-43 0 -74.5 -31.5t-31.5 -75.5v-459q0 -64 45 -106q-45 -42 -45 -109v-231q0 -157 -110 -267t-267 -110q-155 0 -265 110t-110 267v233q-3 65 -45 107q45 45 45 106v459q0 44 -32.5 75.5t-76.5 31.5zM397 1595q0 37 28.5 69 t78.5 52q51 -20 79.5 -52t28.5 -69q0 -28 -18 -55q-12 56 -90 88q-79 -34 -88 -88q-19 28 -19 55z" />
<glyph unicode="&#xdc;" d="M20 1389q42 45 109 45q65 0 107 -45q42 45 106 45q67 0 109 -45q-44 0 -76.5 -31.5t-32.5 -75.5v-459q0 -61 45 -106q-45 -45 -45 -109v-231q0 -67 48 -114.5t114 -47.5q68 0 115 47.5t47 114.5v233q0 65 -45 107q45 42 45 106v459q0 44 -32.5 75.5t-76.5 31.5 q45 45 109 45t106 -45q45 45 109 45t106 -45q-43 0 -74.5 -31.5t-31.5 -75.5v-459q0 -64 45 -106q-45 -42 -45 -109v-231q0 -157 -110 -267t-267 -110q-155 0 -265 110t-110 267v233q-3 65 -45 107q45 45 45 106v459q0 44 -32.5 75.5t-76.5 31.5zM342 1595q0 22 16 38t39 16 q22 0 38 -16t16 -38q0 -23 -16 -39t-38 -16q-23 0 -39 16t-16 39zM557 1595q0 22 16 38t39 16q22 0 38 -16t16 -38q0 -23 -16 -39t-38 -16q-23 0 -39 16t-16 39z" />
<glyph unicode="&#xdd;" d="M20 1389q25 45 91 45q64 0 125 -45q25 45 90 45q64 0 125 -45q-33 0 -53.5 -19t-20.5 -49q0 -20 8 -39l119 -297l119 297q8 19 8 39q0 31 -20 49.5t-54 18.5q61 45 127 45q63 0 88 -45q61 45 127 45q63 0 88 -45q-44 0 -87 -31t-62 -76l-183 -459q-16 -46 -16 -65 q0 -25 16 -41q-43 -43 -43 -109v-456q0 -44 31.5 -75.5t75.5 -31.5q-42 -45 -107 -45q-63 0 -108 45q-42 -45 -107 -45q-63 0 -108 45q44 0 76 31.5t32 75.5v456q0 64 -45 109q17 17 17 45q0 18 -15 61l-184 459q-17 44 -61.5 75.5t-88.5 31.5zM438 1595q0 57 37.5 98 t93.5 46v-92q-46 0 -80 -30.5t-38 -76.5q-13 29 -13 55z" />
<glyph unicode="&#xdf;" horiz-adv-x="995" d="M20 45q44 0 76.5 31.5t32.5 75.5v905q0 157 110 267t265 110q157 0 267 -110t110 -267q-66 0 -114 -47.5t-48 -114.5q0 -53 26.5 -97.5t64 -81t75 -78.5t64 -109t26.5 -152q0 -156 -110.5 -266.5t-266.5 -110.5q-64 0 -110 46t-46 110q0 60 45 108q46 -49 111 -49 q66 0 114 47.5t48 114.5q0 53 -26.5 97.5t-64 81t-75 78.5t-64 109t-26.5 152q0 160 117 274q-47 50 -117 50q-66 0 -113 -47.5t-47 -114.5v-905q0 -44 31.5 -75.5t75.5 -31.5q-42 -45 -107 -45q-66 0 -108 45q-42 -45 -107 -45q-67 0 -109 45z" />
<glyph unicode="&#xe0;" d="M20 45q44 0 82.5 31.5t47.5 75.5l92 458q2 10 2 29q0 44 -27 78q56 43 68 106l90 459l2 23q0 36 -25 60t-63 24q51 45 117 45q67 0 98 -45q36 45 98 45q66 0 117 -45q-38 0 -63 -24t-25 -60l2 -23l92 -459q12 -62 66 -106q-27 -34 -27 -76l4 -31l92 -458 q7 -44 45.5 -75.5t81.5 -31.5q-31 -45 -98 -45q-63 0 -117 45q-31 -45 -98 -45q-64 0 -115 45q38 0 63 25t25 63l-2 19l-141 700l-72 -367q60 0 103 -43q40 -43 40 -102t-40 -102q0 32 -22.5 53.5t-55.5 21.5q-30 0 -50 -21t-26 -54l-16 -86l-3 -23q0 -35 25.5 -59.5 t63.5 -24.5q-51 -45 -117 -45q-62 0 -98 45q-51 -45 -117 -45q-63 0 -99 45zM438 1647v92q56 -5 93.5 -46t37.5 -98q0 -25 -10 -55q-6 46 -40.5 76.5t-80.5 30.5z" />
<glyph unicode="&#xe1;" d="M20 45q44 0 82.5 31.5t47.5 75.5l92 458q2 10 2 29q0 44 -27 78q56 43 68 106l90 459l2 23q0 36 -25 60t-63 24q51 45 117 45q67 0 98 -45q36 45 98 45q66 0 117 -45q-38 0 -63 -24t-25 -60l2 -23l92 -459q12 -62 66 -106q-27 -34 -27 -76l4 -31l92 -458 q7 -44 45.5 -75.5t81.5 -31.5q-31 -45 -98 -45q-63 0 -117 45q-31 -45 -98 -45q-64 0 -115 45q38 0 63 25t25 63l-2 19l-141 700l-72 -367q60 0 103 -43q40 -43 40 -102t-40 -102q0 32 -22.5 53.5t-55.5 21.5q-30 0 -50 -21t-26 -54l-16 -86l-3 -23q0 -35 25.5 -59.5 t63.5 -24.5q-51 -45 -117 -45q-62 0 -98 45q-51 -45 -117 -45q-63 0 -99 45zM438 1595q0 57 37.5 98t93.5 46v-92q-46 0 -80 -30.5t-38 -76.5q-13 29 -13 55z" />
<glyph unicode="&#xe2;" d="M20 45q44 0 82.5 31.5t47.5 75.5l92 458q2 10 2 29q0 44 -27 78q56 43 68 106l90 459l2 23q0 36 -25 60t-63 24q51 45 117 45q67 0 98 -45q36 45 98 45q66 0 117 -45q-38 0 -63 -24t-25 -60l2 -23l92 -459q12 -62 66 -106q-27 -34 -27 -76l4 -31l92 -458 q7 -44 45.5 -75.5t81.5 -31.5q-31 -45 -98 -45q-63 0 -117 45q-31 -45 -98 -45q-63 0 -117 45q38 0 63 24t25 60l-2 23l-139 700l-72 -367q60 0 103 -43q40 -43 40 -102t-40 -102q0 32 -22.5 53.5t-55.5 21.5q-30 0 -50 -21t-26 -54l-16 -86l-3 -23q0 -35 25.5 -59.5 t63.5 -24.5q-51 -45 -117 -45q-62 0 -98 45q-51 -45 -117 -45q-63 0 -99 45zM397 1595q0 37 28.5 69t78.5 52q51 -20 79.5 -52t28.5 -69q0 -28 -18 -55q-12 56 -90 88q-79 -34 -88 -88q-19 28 -19 55z" />
<glyph unicode="&#xe3;" d="M20 45q44 0 82.5 31.5t47.5 75.5l92 458q2 10 2 29q0 44 -27 78q56 43 68 106l90 459l2 23q0 36 -25 60t-63 24q51 45 117 45q67 0 98 -45q36 45 98 45q66 0 117 -45q-38 0 -63 -24t-25 -60l2 -23l92 -459q12 -62 66 -106q-27 -34 -27 -76l4 -31l92 -458 q7 -44 45.5 -75.5t81.5 -31.5q-31 -45 -98 -45q-63 0 -117 45q-31 -45 -98 -45q-64 0 -115 45q38 0 63 25t25 63l-2 19l-141 700l-72 -367q60 0 103 -43q40 -43 40 -102t-40 -102q0 32 -22.5 53.5t-55.5 21.5q-30 0 -50 -21t-26 -54l-16 -86l-3 -23q0 -35 25.5 -59.5 t63.5 -24.5q-51 -45 -117 -45q-62 0 -98 45q-51 -45 -117 -45q-63 0 -99 45zM266 1618q0 35 23 55q38 41 98 41q42 0 137 -37q76 -26 94 -26q19 0 27 8q21 24 21 57q30 0 55 -22q22 -25 22 -56q0 -30 -22 -55q-44 -41 -100 -41q-46 0 -136 37q-79 27 -96 27q-15 0 -24 -9 q-21 -24 -21 -51v-6q-33 0 -55 25q-23 20 -23 53z" />
<glyph unicode="&#xe4;" d="M20 45q44 0 82.5 31.5t47.5 75.5l92 458q2 10 2 29q0 44 -27 78q56 46 68 106l90 459l2 23q0 36 -25 60t-63 24q51 45 117 45q62 0 98 -45q36 45 98 45q66 0 117 -45q-38 0 -63 -24t-25 -60l2 -23l92 -459q12 -62 66 -106q-27 -34 -27 -76l4 -31l90 -458 q9 -44 47.5 -75.5t81.5 -31.5q-31 -45 -98 -45q-63 0 -117 45q-31 -45 -98 -45q-63 0 -117 45q38 0 63 24t25 60l-2 23l-139 700l-72 -367q60 0 103 -43q40 -43 40 -102t-40 -102q0 32 -22.5 53.5t-55.5 21.5q-30 0 -50 -21t-26 -54l-16 -86l-3 -23q0 -35 25.5 -59.5 t63.5 -24.5q-51 -45 -117 -45q-62 0 -98 45q-51 -45 -117 -45q-63 0 -99 45zM342 1595q0 22 16 38t39 16q22 0 38 -16t16 -38q0 -23 -16 -39t-38 -16q-23 0 -39 16t-16 39zM557 1595q0 22 16 38t39 16q22 0 38 -16t16 -38q0 -23 -16 -39t-38 -16q-23 0 -39 16t-16 39z" />
<glyph unicode="&#xe5;" d="M20 45q44 0 82.5 31.5t47.5 75.5l92 458q2 10 2 29q0 44 -27 78q56 43 68 106l90 459l2 23q0 36 -25 60t-63 24q51 45 117 45q67 0 98 -45q36 45 98 45q66 0 117 -45q-38 0 -63 -24t-25 -60l2 -23l92 -459q12 -62 66 -106q-27 -34 -27 -76l4 -31l92 -458 q7 -44 45.5 -75.5t81.5 -31.5q-31 -45 -98 -45q-63 0 -117 45q-31 -45 -98 -45q-64 0 -115 45q38 0 63 25t25 63l-2 19l-141 700l-72 -367q60 0 103 -43q40 -43 40 -102t-40 -102q0 32 -22.5 53.5t-55.5 21.5q-30 0 -50 -21t-26 -54l-16 -86l-3 -23q0 -35 25.5 -59.5 t63.5 -24.5q-51 -45 -117 -45q-62 0 -98 45q-51 -45 -117 -45q-63 0 -99 45zM397 1649q0 44 31.5 75t75.5 31t76 -31t32 -75t-32 -76.5t-76 -32.5t-75.5 32.5t-31.5 76.5zM461 1649q0 -19 12 -31t31 -12t32 12t13 31t-13 31t-32 12t-31 -12t-12 -31z" />
<glyph unicode="&#xe6;" horiz-adv-x="1423" d="M20 45q44 0 82.5 31.5t47.5 75.5l92 456q2 10 2 29q0 41 -27 80q56 43 68 106l90 459l2 23q0 36 -25 60t-63 24q55 45 117 45q65 0 98 -45q38 45 98 45h479q62 0 107 -45q48 45 108 45q62 0 107 -45q-43 0 -75 -31.5t-32 -75.5v-96q0 -64 -45 -109t-106 -45q31 36 31 78 q0 45 -31 76q-33 33 -78 33h-422l80 -396h205q44 0 75 32t31 77q45 -45 45 -109t-45 -106q45 -45 45 -109t-45 -106q0 44 -31 75t-75 31h-162l78 -393h221q42 0 78 31q31 36 31 78q0 44 -31 75q64 0 106 -45q45 -42 45 -106v-96q0 -44 32 -75.5t75 -31.5q-42 -45 -107 -45 q-63 0 -108 45q-42 -45 -107 -45h-200q-61 3 -109 45q-31 -45 -98 -45q-63 0 -117 45q38 0 63 24t25 60l-2 23l-139 698l-72 -365q60 0 103 -43q40 -43 40 -102t-40 -102q0 31 -23 53t-55 22q-29 0 -49.5 -21.5t-26.5 -53.5l-16 -86l-3 -23q0 -35 25.5 -59.5t63.5 -24.5 q-51 -45 -117 -45q-62 0 -98 45q-51 -45 -117 -45q-63 0 -99 45z" />
<glyph unicode="&#xe7;" horiz-adv-x="880" d="M20 717q46 46 46 106v234q0 157 109.5 267t264.5 110q156 0 267 -111q36 -31 77 -31q45 0 76 31q0 -61 -45 -106q-46 -46 -108 -46q0 -62 -43 -108q-46 -43 -109 -43q33 29 33 76q0 46 -33 75q-48 48 -115 48q-66 0 -112.5 -47.5t-46.5 -114.5v-234q0 -63 43 -106 q-43 -43 -43 -109v-231q0 -67 46.5 -114.5t112.5 -47.5q68 0 115 47.5t47 114.5q0 62 -49 108q45 45 111 45q63 0 108 -45t45 -108q0 -138 -89 -243t-222 -128l-6 -22q47 -21 76.5 -63t29.5 -93q0 -71 -54 -121.5t-130 -50.5q-92 0 -148 70q29 -13 62 -13q58 0 100.5 35.5 t42.5 85.5q0 51 -42 86t-101 35q-19 0 -43 -4l24 69q-111 39 -181 137t-70 220v231q0 63 -46 109z" />
<glyph unicode="&#xe8;" d="M20 45q44 0 76.5 31.5t32.5 75.5v456q0 64 -45 109q45 45 45 106v459q0 44 -32.5 75.5t-76.5 31.5q42 45 109 45q65 0 107 -45q42 45 108 45h322q64 0 106 -45q45 45 109 45t106 -45q-43 0 -74.5 -31.5t-31.5 -75.5v-96q0 -64 -45 -109q-43 -43 -107 -43q31 31 31 76 t-31 76q-33 33 -78 33h-307v-396h170q44 0 75.5 32.5t31.5 76.5q45 -42 45 -109q0 -64 -45 -106q45 -42 45 -109q0 -64 -45 -106q0 44 -31.5 75t-75.5 31h-170v-393h307q45 0 78 33q31 31 31 76q0 44 -31 75q64 0 107 -43q45 -45 45 -108v-96q0 -44 31.5 -75.5t74.5 -31.5 q-42 -45 -106 -45t-109 45q-42 -45 -106 -45h-324q-64 0 -106 45q-42 -45 -107 -45q-67 0 -109 45zM438 1647v92q56 -5 93.5 -46t37.5 -98q0 -25 -10 -55q-6 46 -40.5 76.5t-80.5 30.5z" />
<glyph unicode="&#xe9;" d="M20 45q44 0 76.5 31.5t32.5 75.5v456q0 64 -45 109q45 45 45 106v459q0 44 -32.5 75.5t-76.5 31.5q42 45 109 45q65 0 107 -45q42 45 108 45h322q64 0 106 -45q45 45 109 45t106 -45q-43 0 -74.5 -31.5t-31.5 -75.5v-96q0 -64 -45 -109q-43 -43 -107 -43q31 31 31 76 t-31 76q-33 33 -78 33h-307v-396h170q44 0 75.5 32.5t31.5 76.5q45 -42 45 -109q0 -64 -45 -106q45 -42 45 -109q0 -64 -45 -106q0 44 -31.5 75t-75.5 31h-170v-393h307q45 0 78 33q31 31 31 76q0 44 -31 75q64 0 107 -43q45 -45 45 -108v-96q0 -44 31.5 -75.5t74.5 -31.5 q-42 -45 -106 -45t-109 45q-42 -45 -106 -45h-324q-64 0 -106 45q-42 -45 -107 -45q-67 0 -109 45zM438 1595q0 57 37.5 98t93.5 46v-92q-46 0 -80 -30.5t-38 -76.5q-13 29 -13 55z" />
<glyph unicode="&#xea;" d="M20 45q44 0 76.5 31.5t32.5 75.5v456q0 64 -45 109q45 45 45 106v459q0 44 -32.5 75.5t-76.5 31.5q42 45 109 45q65 0 107 -45q42 45 108 45h322q64 0 106 -45q45 45 109 45t106 -45q-43 0 -74.5 -31.5t-31.5 -75.5v-96q0 -64 -45 -109q-43 -43 -107 -43q31 31 31 76 t-31 76q-33 33 -78 33h-307v-396h170q44 0 75.5 32.5t31.5 76.5q45 -42 45 -109q0 -64 -45 -106q45 -42 45 -109q0 -64 -45 -106q0 44 -31.5 75t-75.5 31h-170v-393h307q45 0 78 33q31 31 31 76q0 44 -31 75q64 0 107 -43q45 -45 45 -108v-96q0 -44 31.5 -75.5t74.5 -31.5 q-42 -45 -106 -45t-109 45q-42 -45 -106 -45h-324q-64 0 -106 45q-42 -45 -107 -45q-67 0 -109 45zM397 1595q0 37 28.5 69t78.5 52q51 -20 79.5 -52t28.5 -69q0 -28 -18 -55q-12 56 -90 88q-79 -34 -88 -88q-19 28 -19 55z" />
<glyph unicode="&#xeb;" d="M20 45q44 0 76.5 31.5t32.5 75.5v456q0 64 -45 109q45 45 45 106v459q0 44 -32.5 75.5t-76.5 31.5q42 45 109 45q65 0 107 -45q42 45 108 45h322q64 0 106 -45q45 45 109 45t106 -45q-43 0 -74.5 -31.5t-31.5 -75.5v-96q0 -64 -45 -109q-43 -43 -107 -43q31 31 31 76 t-31 76q-33 33 -78 33h-307v-396h170q44 0 75.5 32.5t31.5 76.5q45 -42 45 -109q0 -64 -45 -106q45 -42 45 -109q0 -64 -45 -106q0 44 -31.5 75t-75.5 31h-170v-393h307q45 0 78 33q31 31 31 76q0 44 -31 75q64 0 107 -43q45 -45 45 -108v-96q0 -44 31.5 -75.5t74.5 -31.5 q-42 -45 -106 -45t-109 45q-42 -45 -106 -45h-324q-64 0 -106 45q-42 -45 -107 -45q-67 0 -109 45zM342 1595q0 22 16 38t39 16q22 0 38 -16t16 -38q0 -23 -16 -39t-38 -16q-23 0 -39 16t-16 39zM557 1595q0 22 16 38t39 16q22 0 38 -16t16 -38q0 -23 -16 -39t-38 -16 q-23 0 -39 16t-16 39z" />
<glyph unicode="&#xec;" horiz-adv-x="471" d="M20 45q44 0 76.5 31.5t32.5 75.5v456q0 64 -45 109q45 45 45 106v459q0 44 -32.5 75.5t-76.5 31.5q42 45 109 45q65 0 107 -45q42 45 108 45q65 0 107 -45q-44 0 -75.5 -31.5t-31.5 -75.5v-459q0 -63 43 -106q-43 -43 -43 -109v-456q0 -44 31.5 -75.5t75.5 -31.5 q-42 -45 -107 -45q-66 0 -108 45q-42 -45 -107 -45q-67 0 -109 45zM170 1647v92q56 -5 93.5 -46t37.5 -98q0 -25 -10 -55q-6 46 -40.5 76.5t-80.5 30.5z" />
<glyph unicode="&#xed;" horiz-adv-x="471" d="M20 45q44 0 76.5 31.5t32.5 75.5v456q0 64 -45 109q45 45 45 106v459q0 44 -32.5 75.5t-76.5 31.5q42 45 109 45q65 0 107 -45q42 45 108 45q65 0 107 -45q-44 0 -75.5 -31.5t-31.5 -75.5v-459q0 -63 43 -106q-43 -43 -43 -109v-456q0 -44 31.5 -75.5t75.5 -31.5 q-42 -45 -107 -45q-66 0 -108 45q-42 -45 -107 -45q-67 0 -109 45zM170 1595q0 57 37.5 98t93.5 46v-92q-46 0 -80.5 -30.5t-40.5 -76.5q-10 30 -10 55z" />
<glyph unicode="&#xee;" horiz-adv-x="471" d="M20 45q44 0 76.5 31.5t32.5 75.5v456q0 64 -45 109q45 45 45 106v459q0 44 -32.5 75.5t-76.5 31.5q42 45 109 45q65 0 107 -45q42 45 108 45q65 0 107 -45q-44 0 -75.5 -31.5t-31.5 -75.5v-459q0 -63 43 -106q-43 -43 -43 -109v-456q0 -44 31.5 -75.5t75.5 -31.5 q-42 -45 -107 -45q-66 0 -108 45q-42 -45 -107 -45q-67 0 -109 45zM127 1595q0 36 29.5 68t79.5 53q50 -20 78 -52t28 -69q0 -26 -16 -55q-12 55 -90 88q-79 -34 -91 -88q-18 32 -18 55z" />
<glyph unicode="&#xef;" horiz-adv-x="471" d="M20 45q44 0 76.5 31.5t32.5 75.5v456q0 64 -45 109q45 45 45 106v459q0 44 -32.5 75.5t-76.5 31.5q42 45 109 45q65 0 107 -45q42 45 108 45q65 0 107 -45q-44 0 -75.5 -31.5t-31.5 -75.5v-459q0 -63 43 -106q-43 -43 -43 -109v-456q0 -44 31.5 -75.5t75.5 -31.5 q-42 -45 -107 -45q-66 0 -108 45q-42 -45 -107 -45q-67 0 -109 45zM74 1595q0 22 16 38t39 16q22 0 37.5 -16t15.5 -38q0 -23 -15.5 -39t-37.5 -16q-23 0 -39 16t-16 39zM289 1595q0 22 16 38t39 16q22 0 37.5 -16t15.5 -38q0 -23 -15.5 -39t-37.5 -16q-23 0 -39 16t-16 39z " />
<glyph unicode="&#xf1;" d="M20 45q44 0 76.5 31.5t32.5 75.5v456q0 64 -45 109q45 45 45 106v459q0 44 -32.5 75.5t-76.5 31.5q36 45 117 45q77 0 150 -44.5t98 -107.5l281 -700v700q0 44 -32.5 75.5t-76.5 31.5q45 45 109 45t106 -45q45 45 109 45t106 -45q-43 0 -74.5 -31.5t-31.5 -75.5v-459 q0 -64 45 -106q-45 -42 -45 -109v-456q0 -44 31.5 -75.5t74.5 -31.5q-36 -45 -115 -45q-78 0 -151 44.5t-98 107.5l-279 700v-700q0 -44 31.5 -75.5t75.5 -31.5q-42 -45 -107 -45q-66 0 -108 45q-42 -45 -107 -45q-67 0 -109 45zM266 1618q0 35 23 55q38 41 98 41 q42 0 137 -37q76 -26 94 -26q19 0 27 8q21 24 21 57q30 0 55 -22q22 -25 22 -56q0 -30 -22 -55q-44 -41 -100 -41q-46 0 -136 37q-79 27 -96 27q-15 0 -24 -9q-21 -24 -21 -51v-6q-33 0 -55 25q-23 20 -23 53z" />
<glyph unicode="&#xf2;" horiz-adv-x="882" d="M20 717q46 46 46 106v234q0 157 109.5 267t264.5 110q157 0 267 -110t110 -267v-234q0 -61 45 -106q-45 -45 -45 -109v-231q0 -157 -110 -267t-267 -110q-155 0 -264.5 110t-109.5 267v231q0 63 -46 109zM281 377q0 -67 46.5 -114.5t112.5 -47.5q68 0 115 47.5t47 114.5 v231q0 67 -45 109q45 42 45 106v234q0 67 -47 114.5t-115 47.5q-66 0 -112.5 -47.5t-46.5 -114.5v-234q0 -63 43 -106q-43 -43 -43 -109v-231zM377 1647v92q54 -5 91.5 -46t37.5 -98q0 -32 -10 -55q-6 46 -39.5 76.5t-79.5 30.5z" />
<glyph unicode="&#xf3;" horiz-adv-x="882" d="M20 717q46 46 46 106v234q0 157 109.5 267t264.5 110q157 0 267 -110t110 -267v-234q0 -61 45 -106q-45 -45 -45 -109v-231q0 -157 -110 -267t-267 -110q-155 0 -264.5 110t-109.5 267v231q0 63 -46 109zM281 377q0 -67 46.5 -114.5t112.5 -47.5q68 0 115 47.5t47 114.5 v231q0 67 -45 109q45 42 45 106v234q0 67 -47 114.5t-115 47.5q-66 0 -112.5 -47.5t-46.5 -114.5v-234q0 -63 43 -106q-43 -43 -43 -109v-231zM377 1595q0 57 37.5 98t91.5 46v-92q-46 0 -79.5 -30.5t-39.5 -76.5q-10 22 -10 55z" />
<glyph unicode="&#xf4;" horiz-adv-x="882" d="M20 717q46 46 46 106v234q0 157 109.5 267t264.5 110q157 0 267 -110t110 -267v-234q0 -61 45 -106q-45 -45 -45 -109v-231q0 -157 -110 -267t-267 -110q-155 0 -264.5 110t-109.5 267v231q0 63 -46 109zM281 377q0 -67 46.5 -114.5t112.5 -47.5q68 0 115 47.5t47 114.5 v231q0 67 -45 109q45 42 45 106v234q0 67 -47 114.5t-115 47.5q-66 0 -112.5 -47.5t-46.5 -114.5v-234q0 -63 43 -106q-43 -43 -43 -109v-231zM334 1595q0 37 28 69t78 52q52 -20 80.5 -52t28.5 -69q0 -27 -19 -55q-12 56 -90 88q-76 -32 -88 -88q-18 27 -18 55z" />
<glyph unicode="&#xf5;" horiz-adv-x="882" d="M20 717q46 46 46 106v234q0 157 109.5 267t264.5 110q157 0 267 -110t110 -267v-234q0 -61 45 -106q-45 -45 -45 -109v-231q0 -157 -110 -267t-267 -110q-155 0 -264.5 110t-109.5 267v231q0 63 -46 109zM203 1618q0 33 22 55q41 41 99 41q42 0 137 -37q76 -26 94 -26 q19 0 27 8q20 23 20 51v6q33 0 55 -22q23 -26 23 -56q0 -29 -23 -55q-44 -41 -100 -41q-45 0 -135 37q-79 27 -94 27q-18 0 -27 -9q-20 -23 -20 -51v-6q-34 0 -56 25q-22 22 -22 53zM281 377q0 -67 46.5 -114.5t112.5 -47.5q68 0 115 47.5t47 114.5v231q0 67 -45 109 q45 42 45 106v234q0 67 -47 114.5t-115 47.5q-66 0 -112.5 -47.5t-46.5 -114.5v-234q0 -63 43 -106q-43 -43 -43 -109v-231z" />
<glyph unicode="&#xf6;" horiz-adv-x="882" d="M20 717q46 46 46 106v234q0 157 109.5 267t264.5 110q157 0 267 -110t110 -267v-234q0 -61 45 -106q-45 -45 -45 -109v-231q0 -157 -110 -267t-267 -110q-155 0 -264.5 110t-109.5 267v231q0 63 -46 109zM281 377q0 -67 46.5 -114.5t112.5 -47.5q68 0 115 47.5t47 114.5 v231q0 67 -45 109q45 42 45 106v234q0 67 -47 114.5t-115 47.5q-66 0 -112.5 -47.5t-46.5 -114.5v-234q0 -63 43 -106q-43 -43 -43 -109v-231zM281 1595q0 22 15 38t38 16q22 0 37.5 -16t15.5 -38q0 -23 -15.5 -39t-37.5 -16q-23 0 -38 16t-15 39zM496 1595q0 22 15 38 t38 16q22 0 37.5 -16t15.5 -38q0 -23 -15.5 -39t-37.5 -16q-23 0 -38 16t-15 39z" />
<glyph unicode="&#xf7;" horiz-adv-x="1009" d="M20 610q0 64 46 107q-46 43 -46 106q0 66 46 109q0 -45 31 -77t75 -32h225q62 0 107 45q48 -45 108 -45h224q44 0 76 32.5t32 76.5q45 -45 45 -109q0 -61 -45 -106q45 -45 45 -109q0 -61 -45 -106q0 44 -32 75t-76 31h-224q-62 0 -108 -43q-45 45 -107 45h-225 q-44 0 -75 -32t-31 -76q-46 43 -46 108zM397 393q0 44 31.5 76.5t75.5 32.5t76 -32.5t32 -76.5q0 -43 -32 -74.5t-76 -31.5t-75.5 31.5t-31.5 74.5zM397 1038q0 44 31.5 76.5t75.5 32.5t76 -32.5t32 -76.5q0 -43 -32 -74.5t-76 -31.5t-75.5 31.5t-31.5 74.5z" />
<glyph unicode="&#xf8;" horiz-adv-x="901" d="M20 23q22 0 45.5 16t32.5 37l41 88q-65 97 -65 213v231q0 66 -43 109q43 43 43 106v234q0 156 110.5 266.5t266.5 110.5q132 0 239 -86q10 23 10 32q0 14 -9.5 22.5t-24.5 8.5q33 23 63 23q33 0 43 -23q33 23 66 23q30 0 43 -23q-23 0 -46 -15.5t-32 -37.5l-41 -88 q65 -97 65 -213v-234q0 -63 43 -106q-43 -43 -43 -107v-233q0 -157 -110.5 -267t-265.5 -110q-133 0 -240 86q-10 -23 -10 -33q0 -13 10 -21.5t25 -8.5q-33 -23 -64 -23q-33 0 -43 23q-33 -23 -66 -23q-30 0 -43 23zM289 485l303 652q-49 82 -141 82q-66 0 -114 -47.5 t-48 -114.5v-234q0 -61 45 -106q-45 -45 -45 -107v-125zM309 297q22 -38 59.5 -60t82.5 -22q66 0 113.5 47.5t47.5 114.5v233q0 62 -45 107q45 45 45 106v125z" />
<glyph unicode="&#xf9;" d="M20 1389q42 45 109 45q65 0 107 -45q42 45 106 45q67 0 109 -45q-44 0 -76.5 -31.5t-32.5 -75.5v-459q0 -61 45 -106q-45 -45 -45 -109v-231q0 -67 48 -114.5t114 -47.5q68 0 115 47.5t47 114.5v233q0 65 -45 107q45 42 45 106v459q0 44 -32.5 75.5t-76.5 31.5 q45 45 109 45t106 -45q45 45 109 45t106 -45q-43 0 -74.5 -31.5t-31.5 -75.5v-459q0 -64 45 -106q-45 -42 -45 -109v-231q0 -157 -110 -267t-267 -110q-155 0 -265 110t-110 267v233q-3 65 -45 107q45 45 45 106v459q0 44 -32.5 75.5t-76.5 31.5zM438 1647v92 q56 -5 93.5 -46t37.5 -98q0 -25 -10 -55q-6 46 -40.5 76.5t-80.5 30.5z" />
<glyph unicode="&#xfa;" d="M20 1389q42 45 109 45q65 0 107 -45q42 45 106 45q67 0 109 -45q-44 0 -76.5 -31.5t-32.5 -75.5v-459q0 -61 45 -106q-45 -45 -45 -109v-231q0 -67 48 -114.5t114 -47.5q68 0 115 47.5t47 114.5v233q0 65 -45 107q45 42 45 106v459q0 44 -32.5 75.5t-76.5 31.5 q45 45 109 45t106 -45q45 45 109 45t106 -45q-43 0 -74.5 -31.5t-31.5 -75.5v-459q0 -64 45 -106q-45 -42 -45 -109v-231q0 -157 -110 -267t-267 -110q-155 0 -265 110t-110 267v233q-3 65 -45 107q45 45 45 106v459q0 44 -32.5 75.5t-76.5 31.5zM438 1595q0 57 37.5 98 t93.5 46v-92q-46 0 -80 -30.5t-38 -76.5q-13 29 -13 55z" />
<glyph unicode="&#xfb;" d="M20 1389q42 45 109 45q65 0 107 -45q42 45 106 45q67 0 109 -45q-44 0 -76.5 -31.5t-32.5 -75.5v-459q0 -61 45 -106q-45 -45 -45 -109v-231q0 -67 48 -114.5t114 -47.5q68 0 115 47.5t47 114.5v233q0 65 -45 107q45 42 45 106v459q0 44 -32.5 75.5t-76.5 31.5 q45 45 109 45t106 -45q45 45 109 45t106 -45q-43 0 -74.5 -31.5t-31.5 -75.5v-459q0 -64 45 -106q-45 -42 -45 -109v-231q0 -157 -110 -267t-267 -110q-155 0 -265 110t-110 267v233q-3 65 -45 107q45 45 45 106v459q0 44 -32.5 75.5t-76.5 31.5zM397 1595q0 37 28.5 69 t78.5 52q51 -20 79.5 -52t28.5 -69q0 -28 -18 -55q-12 56 -90 88q-79 -34 -88 -88q-19 28 -19 55z" />
<glyph unicode="&#xfc;" d="M20 1389q42 45 109 45q65 0 107 -45q42 45 106 45q67 0 109 -45q-44 0 -76.5 -31.5t-32.5 -75.5v-459q0 -61 45 -106q-45 -45 -45 -109v-231q0 -67 48 -114.5t114 -47.5q68 0 115 47.5t47 114.5v233q0 65 -45 107q45 42 45 106v459q0 44 -32.5 75.5t-76.5 31.5 q45 45 109 45t106 -45q45 45 109 45t106 -45q-43 0 -74.5 -31.5t-31.5 -75.5v-459q0 -64 45 -106q-45 -42 -45 -109v-231q0 -157 -110 -267t-267 -110q-155 0 -265 110t-110 267v233q-3 65 -45 107q45 45 45 106v459q0 44 -32.5 75.5t-76.5 31.5zM342 1595q0 22 16 38t39 16 q22 0 38 -16t16 -38q0 -23 -16 -39t-38 -16q-23 0 -39 16t-16 39zM557 1595q0 22 16 38t39 16q22 0 38 -16t16 -38q0 -23 -16 -39t-38 -16q-23 0 -39 16t-16 39z" />
<glyph unicode="&#xfd;" d="M20 1389q25 45 91 45q64 0 125 -45q25 45 90 45q64 0 125 -45q-33 0 -53.5 -19t-20.5 -49q0 -20 8 -39l119 -297l119 297q8 19 8 39q0 31 -20 49.5t-54 18.5q61 45 127 45q63 0 88 -45q61 45 127 45q63 0 88 -45q-44 0 -87 -31t-62 -76l-183 -459q-16 -46 -16 -65 q0 -25 16 -41q-43 -43 -43 -109v-456q0 -44 31.5 -75.5t75.5 -31.5q-42 -45 -107 -45q-63 0 -108 45q-42 -45 -107 -45q-63 0 -108 45q44 0 76 31.5t32 75.5v456q0 64 -45 109q17 17 17 45q0 18 -15 61l-184 459q-17 44 -61.5 75.5t-88.5 31.5zM438 1595q0 57 37.5 98 t93.5 46v-92q-46 0 -80 -30.5t-38 -76.5q-13 29 -13 55z" />
<glyph unicode="&#xff;" d="M20 1389q25 45 91 45q64 0 125 -45q25 45 90 45q64 0 125 -45q-33 0 -53.5 -19t-20.5 -49q0 -20 8 -39l119 -297l119 297q8 19 8 39q0 31 -20 49.5t-54 18.5q61 45 127 45q63 0 88 -45q61 45 127 45q63 0 88 -45q-44 0 -87 -31t-62 -76l-183 -459q-16 -46 -16 -65 q0 -25 16 -41q-43 -43 -43 -109v-456q0 -44 31.5 -75.5t75.5 -31.5q-42 -45 -107 -45q-63 0 -108 45q-42 -45 -107 -45q-63 0 -108 45q44 0 76 31.5t32 75.5v456q0 64 -45 109q17 17 17 45q0 18 -15 61l-184 459q-17 44 -61.5 75.5t-88.5 31.5zM342 1595q0 22 16 38t39 16 q22 0 38 -16t16 -38q0 -23 -16 -39t-38 -16q-23 0 -39 16t-16 39zM557 1595q0 22 16 38t39 16q22 0 38 -16t16 -38q0 -23 -16 -39t-38 -16q-23 0 -39 16t-16 39z" />
<glyph unicode="&#x152;" horiz-adv-x="1482" d="M20 717q46 46 46 106v234q0 157 109.5 267t264.5 110h701q64 0 106 -45q45 45 109 45t106 -45q-44 0 -75 -31.5t-31 -75.5v-96q0 -61 -45 -109q-43 -43 -109 -43q33 29 33 76t-33 76q-29 33 -76 33h-309v-396h170q44 0 76.5 32.5t32.5 76.5q45 -45 45 -109 q0 -61 -45 -106q45 -45 45 -109q0 -61 -45 -106q0 44 -32 75t-77 31h-170v-393h309q47 0 76 33q33 29 33 76q0 46 -33 75q66 0 109 -43q45 -48 45 -108v-96q0 -44 31 -75.5t75 -31.5q-42 -45 -106 -45t-109 45q-42 -45 -106 -45h-701q-155 0 -264.5 110t-109.5 267v231 q0 63 -46 109zM281 377q0 -67 46.5 -114.5t112.5 -47.5h162v393q0 67 -45 109q45 42 45 106v396h-162q-66 0 -112.5 -47.5t-46.5 -114.5v-234q0 -63 43 -106q-43 -43 -43 -109v-231z" />
<glyph unicode="&#x153;" horiz-adv-x="1482" d="M20 717q46 46 46 106v234q0 157 109.5 267t264.5 110h701q64 0 106 -45q45 45 109 45t106 -45q-44 0 -75 -31.5t-31 -75.5v-96q0 -61 -45 -109q-43 -43 -109 -43q33 29 33 76t-33 76q-29 33 -76 33h-309v-396h170q44 0 76.5 32.5t32.5 76.5q45 -45 45 -109 q0 -61 -45 -106q45 -45 45 -109q0 -61 -45 -106q0 44 -32 75t-77 31h-170v-393h309q47 0 76 33q33 29 33 76q0 46 -33 75q66 0 109 -43q45 -48 45 -108v-96q0 -44 31 -75.5t75 -31.5q-42 -45 -106 -45t-109 45q-42 -45 -106 -45h-701q-155 0 -264.5 110t-109.5 267v231 q0 63 -46 109zM281 377q0 -67 46.5 -114.5t112.5 -47.5h162v393q0 67 -45 109q45 42 45 106v396h-162q-66 0 -112.5 -47.5t-46.5 -114.5v-234q0 -63 43 -106q-43 -43 -43 -109v-231z" />
<glyph unicode="&#x178;" d="M20 1389q25 45 91 45q64 0 125 -45q25 45 90 45q64 0 125 -45q-33 0 -53.5 -19t-20.5 -49q0 -20 8 -39l119 -297l119 297q8 19 8 39q0 31 -20 49.5t-54 18.5q61 45 127 45q63 0 88 -45q61 45 127 45q63 0 88 -45q-44 0 -87 -31t-62 -76l-183 -459q-16 -46 -16 -65 q0 -25 16 -41q-43 -43 -43 -109v-456q0 -44 31.5 -75.5t75.5 -31.5q-42 -45 -107 -45q-63 0 -108 45q-42 -45 -107 -45q-63 0 -108 45q44 0 76 31.5t32 75.5v456q0 64 -45 109q17 17 17 45q0 18 -15 61l-184 459q-17 44 -61.5 75.5t-88.5 31.5zM342 1595q0 22 16 38t39 16 q22 0 38 -16t16 -38q0 -23 -16 -39t-38 -16q-23 0 -39 16t-16 39zM557 1595q0 22 16 38t39 16q22 0 38 -16t16 -38q0 -23 -16 -39t-38 -16q-23 0 -39 16t-16 39z" />
<glyph unicode="&#x2000;" horiz-adv-x="877" />
<glyph unicode="&#x2001;" horiz-adv-x="1755" />
<glyph unicode="&#x2002;" horiz-adv-x="877" />
<glyph unicode="&#x2003;" horiz-adv-x="1755" />
<glyph unicode="&#x2004;" horiz-adv-x="585" />
<glyph unicode="&#x2005;" horiz-adv-x="438" />
<glyph unicode="&#x2006;" horiz-adv-x="292" />
<glyph unicode="&#x2007;" horiz-adv-x="292" />
<glyph unicode="&#x2008;" horiz-adv-x="219" />
<glyph unicode="&#x2009;" horiz-adv-x="351" />
<glyph unicode="&#x200a;" horiz-adv-x="97" />
<glyph unicode="&#x2010;" d="M20 610q0 64 46 107q-46 43 -46 106q0 66 46 109q0 -45 31 -77t75 -32h225q62 0 107 45q48 -45 108 -45h224q44 0 76 32.5t32 76.5q43 -43 43 -109q0 -63 -43 -106q43 -43 43 -109q0 -63 -43 -106q0 44 -32 75t-76 31h-224q-62 0 -108 -43q-45 45 -107 45h-225 q-44 0 -75 -32t-31 -76q-46 43 -46 108z" />
<glyph unicode="&#x2011;" d="M20 610q0 64 46 107q-46 43 -46 106q0 66 46 109q0 -45 31 -77t75 -32h225q62 0 107 45q48 -45 108 -45h224q44 0 76 32.5t32 76.5q43 -43 43 -109q0 -63 -43 -106q43 -43 43 -109q0 -63 -43 -106q0 44 -32 75t-76 31h-224q-62 0 -108 -43q-45 45 -107 45h-225 q-44 0 -75 -32t-31 -76q-46 43 -46 108z" />
<glyph unicode="&#x2012;" d="M20 610q0 64 46 107q-46 43 -46 106q0 66 46 109q0 -45 31 -77t75 -32h225q62 0 107 45q48 -45 108 -45h224q44 0 76 32.5t32 76.5q43 -43 43 -109q0 -63 -43 -106q43 -43 43 -109q0 -63 -43 -106q0 44 -32 75t-76 31h-224q-62 0 -108 -43q-45 45 -107 45h-225 q-44 0 -75 -32t-31 -76q-46 43 -46 108z" />
<glyph unicode="&#x2013;" horiz-adv-x="1150" d="M20 610q0 64 46 107q-46 43 -46 106q0 66 46 109q0 -45 31 -77t75 -32h297q61 0 106 45q48 -45 109 -45h295q44 0 76 32.5t32 76.5q43 -43 43 -109q0 -63 -43 -106q43 -43 43 -109q0 -63 -43 -106q0 44 -32 75t-76 31h-295q-63 0 -109 -43q-45 45 -106 45h-297 q-44 0 -75 -32t-31 -76q-46 43 -46 108z" />
<glyph unicode="&#x2014;" horiz-adv-x="1652" d="M20 610q0 64 46 107q-46 43 -46 106q0 66 46 109q0 -45 31 -77t75 -32h547q60 0 108 45q45 -45 107 -45h547q44 0 76 32.5t32 76.5q43 -43 43 -109q0 -63 -43 -106q43 -43 43 -109q0 -63 -43 -106q0 44 -32 75t-76 31h-547q-64 0 -107 -43q-48 45 -108 45h-547 q-44 0 -75 -32t-31 -76q-46 43 -46 108z" />
<glyph unicode="&#x2018;" horiz-adv-x="284" d="M20 1382q0 56 23.5 114.5t71 101t104.5 42.5q29 0 45 -8q-44 -8 -69 -55t-25 -98q0 -27 6 -45q38 -7 63 -38t25 -71q0 -43 -32 -74.5t-76 -31.5q-62 0 -99 49.5t-37 113.5z" />
<glyph unicode="&#x2019;" horiz-adv-x="284" d="M20 1235q44 8 69.5 55.5t25.5 98.5q0 27 -6 45q-38 8 -63.5 38t-25.5 70q0 43 32.5 75t76.5 32q62 0 98.5 -50t36.5 -114q0 -57 -23.5 -115t-70.5 -100.5t-104 -42.5q-30 0 -46 8z" />
<glyph unicode="&#x201a;" horiz-adv-x="284" d="M20 109q0 43 32.5 74.5t76.5 31.5q62 0 98.5 -50t36.5 -114q0 -57 -23.5 -115t-70.5 -100.5t-104 -42.5q-30 0 -46 8q44 8 69.5 55.5t25.5 98.5q0 27 -6 45q-38 8 -63.5 38.5t-25.5 70.5z" />
<glyph unicode="&#x201c;" horiz-adv-x="608" d="M20 1382q0 56 23.5 114.5t71 101t104.5 42.5q29 0 45 -8q-44 -8 -69 -55t-25 -98q0 -27 6 -45q38 -7 63 -38t25 -71q0 -43 -32 -74.5t-76 -31.5q-62 0 -99 49.5t-37 113.5zM344 1382q0 57 23.5 115t70.5 100.5t105 42.5q26 0 45 -8q-46 -8 -71 -55.5t-25 -101.5 q0 -23 6 -41q38 -8 64 -38.5t26 -70.5q0 -43 -32.5 -74.5t-76.5 -31.5q-63 0 -99 49.5t-36 113.5z" />
<glyph unicode="&#x201d;" horiz-adv-x="608" d="M20 1235q44 8 69.5 55.5t25.5 98.5q0 27 -6 45q-38 8 -63.5 38t-25.5 70q0 43 32.5 75t76.5 32q62 0 98.5 -50t36.5 -114q0 -57 -23.5 -115t-70.5 -100.5t-104 -42.5q-30 0 -46 8zM342 1235q46 8 71 55t25 99q0 27 -6 45q-38 8 -63 38t-25 70q0 43 32 75t77 32 q62 0 98.5 -50t36.5 -114q0 -57 -24 -115t-71.5 -100.5t-105.5 -42.5q-26 0 -45 8z" />
<glyph unicode="&#x201e;" horiz-adv-x="608" d="M20 109q0 43 32.5 74.5t76.5 31.5q62 0 98.5 -50t36.5 -114q0 -57 -23.5 -115t-70.5 -100.5t-104 -42.5q-30 0 -46 8q44 8 69.5 55.5t25.5 98.5q0 27 -6 45q-38 8 -63.5 38.5t-25.5 70.5zM344 109q0 43 32 74.5t77 31.5q62 0 98.5 -50t36.5 -114q0 -57 -24 -115 t-71.5 -100.5t-105.5 -42.5q-27 0 -43 8q44 8 69 55.5t25 98.5q0 27 -6 45q-38 7 -63 38t-25 71z" />
<glyph unicode="&#x2022;" horiz-adv-x="471" d="M20 717q0 89 63.5 152t152.5 63t152 -63t63 -152t-63 -152t-152 -63t-152.5 63t-63.5 152z" />
<glyph unicode="&#x202f;" horiz-adv-x="351" />
<glyph unicode="&#x2039;" horiz-adv-x="571" d="M20 717l166 413q9 18 9 37q0 31 -20.5 50.5t-53.5 19.5q65 45 125 45q63 0 90 -45q65 45 125 45q63 0 90 -45q-44 0 -88.5 -32t-61.5 -75l-165 -413l165 -414q17 -44 61 -75t89 -31q-27 -45 -90 -45q-60 0 -125 45q-27 -45 -90 -45q-60 0 -125 45q33 0 53.5 18.5 t20.5 48.5q0 18 -9 39z" />
<glyph unicode="&#x203a;" horiz-adv-x="571" d="M20 197q45 0 89 31t61 75l166 414l-166 413q-17 43 -61.5 75t-88.5 32q27 45 91 45q60 0 125 -45q27 45 90 45q60 0 125 -45q-33 0 -53.5 -19.5t-20.5 -50.5q0 -21 8 -37l166 -413l-166 -414q-8 -19 -8 -39q0 -30 20.5 -48.5t53.5 -18.5q-65 -45 -125 -45q-63 0 -90 45 q-65 -45 -125 -45q-64 0 -91 45z" />
<glyph unicode="&#x205f;" horiz-adv-x="438" />
<glyph unicode="&#x20ac;" horiz-adv-x="882" d="M20 508q0 64 46 110q49 46 110 46v106q-62 0 -110 45q-46 46 -46 111t46 108q46 -49 110 -49v72q0 157 110 267t265 110t266 -111q45 -45 45 -109q0 -65 -45 -110q-48 -45 -108 -45v8q0 61 -43 104q-48 48 -115 48q-66 0 -113 -47.5t-47 -114.5v-72h162q66 0 109 49 q45 -42 45 -108t-45 -111t-109 -45h-162v-106h162q63 0 109 -46q45 -45 45 -110q0 -67 -45 -109q-44 50 -109 50h-162v-72q0 -67 47 -114.5t113 -47.5q68 0 115 47q43 43 43 105v8q60 0 108 -45q45 -45 45 -111q0 -63 -45 -108q-111 -111 -266 -111t-265 110t-110 267v72 q-63 0 -110 -50q-46 43 -46 109z" />
<glyph unicode="&#x25fc;" horiz-adv-x="1433" d="M0 0v1434h1434v-1434h-1434z" />
</font>
</defs>
</svg>
